<svg width="1920" height="1000" viewBox="0 0 1920 1000" fill="none" xmlns="http://www.w3.org/2000/svg">
<g clip-path="url(#clip0_7_7919)">
<rect width="1920" height="1000" fill="#F7FAFC"/>
<path d="M160 0H1920V839C1920 839 1587.74 577.937 1358.92 498.893C1013.78 379.665 711.844 721.436 429.398 480.027C269.115 343.032 160 0 160 0Z" fill="#CCBFDC"/>
<path d="M160 0H1920V808C1920 808 1587.74 556.583 1358.92 480.46C1013.78 365.637 711.844 694.78 429.398 462.291C269.115 330.358 160 0 160 0Z" fill="#7446AB"/>
<path d="M545 1084H-10V819C-10 819 94.7761 901.457 166.932 926.423C275.769 964.082 370.981 856.133 460.048 932.382C510.592 975.652 545 1084 545 1084Z" fill="#CCBFDC"/>
<path d="M545 1094H-10V839C-10 839 94.7761 918.346 166.932 942.37C275.769 978.607 370.981 874.732 460.048 948.104C510.592 989.741 545 1094 545 1094Z" fill="#7446AB"/>
</g>
<defs>
<clipPath id="clip0_7_7919">
<rect width="1920" height="1000" fill="white"/>
</clipPath>
</defs>
</svg>
