<svg width="1760" height="839" viewBox="0 0 1760 839" fill="none" xmlns="http://www.w3.org/2000/svg">
<path d="M0 0H1760V839C1760 839 1427.74 577.937 1198.92 498.893C853.776 379.665 551.844 721.436 269.398 480.028C109.115 343.032 0 0 0 0Z" fill="#CCBFDC"/>
<path d="M0 0H1760V808C1760 808 1427.74 556.583 1198.92 480.46C853.776 365.637 551.844 694.78 269.398 462.291C109.115 330.358 0 0 0 0Z" fill="#5A2F8D"/>
<path d="M0 0H1760V808C1760 808 1427.74 556.583 1198.92 480.46C853.776 365.637 551.844 694.78 269.398 462.291C109.115 330.358 0 0 0 0Z" fill="black" fill-opacity="0.2"/>
<path d="M0 0H1760V839C1760 839 1427.74 577.937 1198.92 498.893C853.776 379.665 551.844 721.436 269.398 480.028C109.115 343.032 0 0 0 0Z" fill="#CCBFDC"/>
<path d="M0 0H1760V808C1760 808 1427.74 556.583 1198.92 480.46C853.776 365.637 551.844 694.78 269.398 462.291C109.115 330.358 0 0 0 0Z" fill="#7446AB"/>
</svg>
