<svg width="245" height="245" viewBox="0 0 245 245" fill="none" xmlns="http://www.w3.org/2000/svg">
<g id="Artboard 1 1" clip-path="url(#clip0_2760_40532)">
<g id="Clip path group">
<mask id="mask0_2760_40532" style="mask-type:luminance" maskUnits="userSpaceOnUse" x="0" y="0" width="245" height="245">
<g id="clippath">
<path id="Vector" d="M245 0H0V245H245V0Z" fill="white"/>
</g>
</mask>
<g mask="url(#mask0_2760_40532)">
<g id="Group">
<g id="background">
<g id="Group_2" opacity="0.25">
<path id="Vector_2" d="M90.9084 47.4638L94.701 74.5633C94.7108 74.6405 94.6569 74.7127 94.5785 74.7238L46.9493 81.3865C46.8709 81.3976 46.7998 81.3424 46.7876 81.2665L43.3171 56.4553L49.1383 49.9579L54.042 53.5729L61.9102 47.7909L66.8359 53.2189L72.0091 47.8203L76.8527 52.1005L83.0623 46.4985L86.7728 51.6962L90.9072 47.4638H90.9084Z" fill="#EDE9F7"/>
<path id="Vector_3" d="M87.4809 23.9135L90.1636 43.0835L86.0293 47.3159L82.3187 42.1182L76.1092 47.7201L71.2656 43.44L66.0924 48.8385L61.1667 43.4106L53.2985 49.1926L48.3948 45.5776L42.5736 52.075L37.8586 18.3752C37.8476 18.2981 37.9027 18.2258 37.9811 18.2135L72.618 13.3687L74.0512 23.6158C74.2166 24.7955 75.3056 25.6187 76.4865 25.4533L87.4846 23.9147L87.4809 23.9135Z" fill="#EDE9F7"/>
<path id="Vector_4" d="M75.4147 22.0171L74.3734 14.5752L85.2588 22.2976L77.2681 23.416C76.3702 23.5422 75.5408 22.9162 75.4147 22.0183V22.0171Z" fill="#CCCCCC"/>
</g>
<g id="Group_3" opacity="0.25">
<g id="Group_4">
<path id="Vector_5" d="M214.097 38.8489L205.69 94.7505C205.675 94.8436 205.588 94.9098 205.494 94.8951L147.948 86.2405C147.855 86.2258 147.789 86.1388 147.804 86.0445L158.435 15.3522C158.45 15.2591 158.537 15.1929 158.631 15.2076L200.479 21.5017L198.617 33.8827C198.402 35.3099 199.382 36.6378 200.809 36.8521L214.097 38.8501V38.8489Z" fill="#EDE8F7"/>
<path id="Vector_6" d="M200.751 32.4959L202.103 23.5044L212.074 36.2064L202.419 34.7548C201.335 34.5919 200.588 33.58 200.751 32.4959Z" fill="#D8CBF7"/>
</g>
<path id="Vector_7" d="M175.996 57.4271L176.526 56.9848C183.185 57.4075 185.739 56.2266 186.106 53.7888L186.114 53.7325C186.404 51.8055 185.053 50.3858 182.333 49.9766C179.669 49.576 176.518 50.4923 173.495 52.4719L168.953 44.1383C172.931 41.2007 178.01 39.4147 184.527 40.3947C192.858 41.6478 198.013 47.0599 196.905 54.427L196.888 54.541C195.814 61.6815 190.593 64.0261 184.072 64.6105L182.847 68.1348L175.99 67.1033L175.996 57.4258V57.4271ZM173.171 70.0421L184.335 71.7216L182.886 81.3562L171.722 79.6767L173.171 70.0421Z" fill="#D8CBF7"/>
</g>
<g id="Group_5" opacity="0.25">
<g id="Group_6">
<path id="Vector_8" d="M76.9704 185.286L63.2712 228.131C63.248 228.203 63.1708 228.242 63.0985 228.22L18.9948 214.118C18.9226 214.095 18.8834 214.018 18.9054 213.945L36.2294 159.765C36.2526 159.693 36.3298 159.653 36.4021 159.677L68.475 169.932L65.4407 179.421C65.0916 180.515 65.6931 181.683 66.7858 182.032L76.9692 185.288L76.9704 185.286Z" fill="#EDE8F7"/>
<path id="Vector_9" d="M67.2929 178.603L69.4967 171.712L75.7173 182.955L68.317 180.59C67.4853 180.324 67.0271 179.435 67.2929 178.603Z" fill="#EDE8F7"/>
</g>
<path id="Vector_10" d="M44.6843 195.044L45.1571 194.764C50.334 195.942 52.49 195.338 53.0878 193.47L53.1013 193.427C53.5729 191.949 52.6921 190.663 50.6071 189.997C48.5663 189.344 45.9742 189.665 43.349 190.836L40.839 183.714C44.3352 181.912 48.5516 181.152 53.5471 182.75C59.9318 184.792 63.2945 189.697 61.4888 195.343L61.4606 195.43C59.7113 200.903 55.3124 202.081 50.1159 201.713L48.706 204.326L43.4507 202.645L44.6843 195.044ZM40.8647 204.594L49.4214 207.329L47.0608 214.714L38.5042 211.978L40.8647 204.594Z" fill="#D8CBF7"/>
</g>
</g>
<g id="folder and files">
<g id="Group_7">
<path id="Vector_11" d="M145.691 139.114V137.462C145.691 134.782 144.246 132.609 141.494 132.609H87.933C85.1817 132.609 83.7815 134.782 83.7815 137.462L88.5663 224.99L212.384 227.718V143.966C212.384 141.286 210.154 139.111 207.402 139.111H145.691V139.114Z" fill="#E6AF2E"/>
<path id="Vector_12" d="M145.691 139.114V137.462C145.691 134.782 144.246 132.609 141.494 132.609H87.933C85.1817 132.609 83.7815 134.782 83.7815 137.462L88.5663 224.99L212.384 227.718V143.966C212.384 141.286 210.154 139.111 207.402 139.111H145.691V139.114Z" fill="#E6AF2E"/>
<path id="Vector_13" d="M145.691 139.114V137.462C145.691 134.782 144.246 132.609 141.494 132.609H87.933C85.1817 132.609 83.7815 134.782 83.7815 137.462L88.5663 224.99L212.384 227.718V143.966C212.384 141.286 210.154 139.111 207.402 139.111H145.691V139.114Z" fill="#41117A"/>
</g>
<g id="Group_8">
<path id="Vector_14" d="M207.097 115.459L194.588 170.524C194.567 170.616 194.474 170.675 194.382 170.654L137.697 157.775C137.606 157.754 137.547 157.661 137.568 157.569L153.387 87.9343C153.408 87.8425 153.501 87.7837 153.593 87.8045L194.814 97.1696L192.043 109.364C191.724 110.77 192.603 112.165 194.008 112.485L207.097 115.458V115.459Z" fill="#EDE8F7"/>
<path id="Vector_15" d="M193.722 108.414L195.734 99.5571L204.727 112.949L195.216 110.788C194.148 110.545 193.478 109.482 193.722 108.414Z" fill="#D8CBF7"/>
<path id="Vector_16" d="M157.111 117.102L165.76 111.674L174.806 126.087L189.372 116.945L194.656 125.366L180.091 134.508L189.185 148.997L180.537 154.425L171.442 139.936L156.877 149.078L151.593 140.657L166.158 131.515L157.111 117.102Z" fill="#D8CBF7"/>
</g>
<g id="Group_9">
<path id="Vector_17" d="M146.167 123.281L170.786 174.101C170.828 174.186 170.791 174.289 170.706 174.331L118.393 199.674C118.307 199.715 118.204 199.679 118.162 199.594L87.0302 135.328C86.9885 135.242 87.0253 135.139 87.1098 135.098L125.153 116.669L130.606 127.924C131.234 129.222 132.791 129.762 134.089 129.133L146.168 123.281H146.167Z" fill="#EDE8F7"/>
<path id="Vector_18" d="M131.321 126.132L127.362 117.959L142.749 122.801L133.972 127.053C132.986 127.531 131.8 127.12 131.322 126.133L131.321 126.132Z" fill="#D8CBF7"/>
<path id="Vector_19" d="M108.153 155.781L111.518 146.14L127.585 151.748L133.252 135.512L142.638 138.787L136.971 155.024L153.123 160.661L149.758 170.302L133.606 164.664L127.939 180.9L118.553 177.625L124.22 161.389L108.153 155.781Z" fill="#D8CBF7"/>
</g>
<path id="Vector_20" d="M134.767 156.082L132.93 161.047H79.6067C76.8554 161.047 74.6246 163.22 74.6246 165.901L88.5676 227.702C88.5676 230.382 90.7983 232.555 93.5497 232.555H207.404C210.155 232.555 212.386 230.382 212.386 227.702L202.831 157.729C202.831 155.048 200.6 152.874 197.849 152.874H139.454C137.354 152.874 135.48 154.157 134.767 156.081V156.082Z" fill="#5A2F8D"/>
</g>
<g id="magnifying glass">
<g id="Group_10">
<path id="Vector_21" d="M188.39 206.012L191.312 207.519L193.529 208.716L190.965 213.421L188.807 212.307L185.934 210.826L188.39 206.012Z" fill="#D3D3D3"/>
<path id="Vector_22" d="M193.529 208.716C193.806 208.626 194.106 208.652 194.363 208.784L225.171 226.814C226.798 227.653 227.568 229.384 226.728 231.011C226.069 232.288 225.227 232.623 223.879 232.443C223.511 232.394 223.146 232.282 222.797 232.102L191.341 213.861C191.163 213.769 191.028 213.611 190.965 213.42L193.529 208.714V208.716Z" fill="#191716"/>
<path id="Vector_23" opacity="0.05" d="M185.933 210.826L188.806 212.307C190.009 210.452 190.459 209.567 191.311 207.519L188.389 206.012L185.933 210.826Z" fill="black"/>
<g id="Group_11">
<g id="Group_12" opacity="0.54">
<path id="Vector_24" opacity="0.38" d="M147.391 183.941L184.551 211.788C184.551 211.788 188.851 208.764 187.715 206.858C186.58 204.952 149.927 180.914 149.927 180.914C149.927 180.914 146.161 182.289 147.391 183.941Z" fill="#F9F9F9"/>
<path id="Vector_25" opacity="0.38" d="M154.343 177.427L189.645 198.119C189.645 198.119 192.931 194.838 188.959 191.595C184.986 188.352 157.017 176.023 157.017 176.023C157.017 176.023 153.224 173.236 154.343 177.427Z" fill="#F9F9F9"/>
<path id="Vector_26" opacity="0.38" d="M172.845 218.303C172.79 218.713 172.459 219.046 172.029 219.085C166.871 219.563 162.205 218.893 158.162 217.095C154.915 215.651 152.069 213.484 149.705 210.653C145.695 205.854 144.472 200.859 144.421 200.648C144.305 200.16 144.606 199.672 145.094 199.555C145.582 199.439 146.07 199.74 146.187 200.227C146.198 200.274 147.384 205.071 151.143 209.544C156.14 215.486 163.11 218.088 171.863 217.279C172.361 217.232 172.804 217.6 172.85 218.098C172.856 218.168 172.855 218.237 172.846 218.303H172.845Z" fill="#F9F9F9"/>
</g>
<path id="Vector_27" d="M150.531 176.485C144.98 180.731 141.417 186.883 140.494 193.81C139.572 200.736 141.403 207.607 145.649 213.156C149.894 218.706 156.047 222.269 162.973 223.192C169.899 224.114 176.77 222.283 182.319 218.038C187.869 213.793 191.432 207.64 192.354 200.714C193.277 193.787 191.446 186.917 187.201 181.368C182.956 175.818 176.803 172.255 169.877 171.332C162.951 170.41 156.08 172.241 150.531 176.486V176.485ZM189.456 200.327C187.766 213.027 176.058 221.983 163.359 220.292C150.658 218.602 141.702 206.894 143.392 194.195C145.083 181.494 156.79 172.538 169.49 174.228C182.189 175.919 191.145 187.626 189.455 200.326L189.456 200.327Z" fill="#191716"/>
</g>
</g>
</g>
<g id="exclamation mark">
<path id="Vector_28" d="M213.204 56.9305C204.34 56.1575 196.528 62.7174 195.756 71.5803C195.564 73.7841 195.826 75.9229 196.463 77.905L191.668 89.2301L202.844 86.3685C205.028 87.8324 207.602 88.783 210.406 89.028C219.27 89.8009 227.082 83.2411 227.854 74.3782C228.625 65.5153 222.067 57.7023 213.204 56.9305Z" fill="#5A2F8D"/>
<path id="Vector_29" d="M198.645 60.2614C198.645 60.2614 206.193 52.3235 215.996 55.0809L198.645 60.2614Z" fill="#5A2F8D"/>
<path id="Vector_30" d="M217.93 55.7778C217.93 55.7778 219.553 56.3315 220.161 57.0126L217.93 55.7778Z" fill="#5A2F8D"/>
</g>
<g id="question marks">
<path id="Vector_31" d="M35.9672 66.1637L35.9256 66.0204C36.5797 64.7354 36.565 64.1278 36.113 63.8461L36.102 63.8399C35.7443 63.617 35.3474 63.764 35.0325 64.2687C34.7251 64.7624 34.6369 65.4667 34.7704 66.236L32.7283 66.4234C32.487 65.3822 32.5678 64.2221 33.32 63.0131C34.2828 61.4671 35.7982 60.9085 37.164 61.7599L37.1849 61.7733C38.5091 62.5978 38.5275 63.835 38.084 65.1789L38.6781 65.724L37.8856 66.9955L35.966 66.165L35.9672 66.1637ZM38.2273 67.8053L39.5173 65.7338L41.3045 66.8473L40.0146 68.9188L38.2273 67.8053Z" fill="#D8CBF7"/>
<path id="Vector_32" d="M51.6178 57.1552L51.7182 57.045C53.1564 56.9323 53.666 56.6015 53.6709 56.0699V56.0576C53.6746 55.6362 53.3426 55.3741 52.7472 55.3692C52.1654 55.3643 51.5186 55.657 50.933 56.1728L49.708 54.5288C50.47 53.7791 51.5014 53.2426 52.9261 53.2536C54.7464 53.2683 56.0143 54.2691 56.0021 55.8788V55.9033C55.9898 57.4639 54.9437 58.1242 53.5668 58.4476L53.4124 59.2389L51.9142 59.2267L51.6215 57.1564L51.6178 57.1552ZM51.3973 59.9396L53.8375 59.9592L53.8203 62.065L51.3801 62.0454L51.3973 59.9396Z" fill="#D8CBF7"/>
<path id="Vector_33" d="M40.7239 56.8244L40.7594 56.6125C42.4156 55.3618 42.7782 54.5655 42.3703 53.9163L42.3605 53.9016C42.0383 53.3883 41.4319 53.327 40.7067 53.7827C39.9975 54.2286 39.4401 55.0837 39.1289 56.1629L36.3678 55.1192C36.7096 53.6198 37.545 52.1682 39.2808 51.0779C41.4993 49.6839 43.8133 49.9142 45.0457 51.8766L45.0641 51.9073C46.2584 53.8085 45.5038 55.4205 44.0841 56.8807L44.5104 57.96L42.6839 59.1078L40.7227 56.8244H40.7239ZM42.6165 60.372L45.5896 58.5039L47.2017 61.0703L44.2286 62.9384L42.6165 60.372Z" fill="#D8CBF7"/>
</g>
<g id="human">
<g id="Group_13">
<path id="Vector_34" d="M41.4062 74.3979C41.6916 74.2877 43.2192 72.5763 43.7509 72.1329C44.2837 71.6894 44.1955 71.0622 43.6761 71.0745C43.158 71.0855 42.5626 71.6074 41.3597 72.7527C40.1567 73.8993 39.8958 74.1198 39.6153 73.9826C39.3347 73.8442 39.6814 73.3236 39.6814 73.3236C40.7692 71.7801 41.0301 72.5972 41.2286 71.905C41.4283 71.2141 40.9983 71.1994 40.1984 71.3685C39.3972 71.5388 38.3498 72.754 37.3943 73.5894C36.4376 74.4249 34.2106 76.5025 33.8467 77.0929C33.6471 77.4151 32.8288 78.0092 32.1256 78.4821C32.7663 79.6336 33.7132 81.6377 34.1763 82.5552C34.224 82.5258 34.2706 82.4988 34.3159 82.4743C35.1011 82.0505 35.781 81.6095 36.2122 81.378C36.8872 81.0154 37.1873 81.1293 38.661 80.9786C40.1347 80.8292 40.7802 80.2191 41.819 79.9214C42.8578 79.6225 43.0416 79.6544 43.6247 79.2746C44.2066 78.8949 44.4332 78.901 44.8644 78.6217C44.9563 78.5629 45.0212 78.4931 45.0579 78.4196V78.4171C45.0665 78.4024 45.0726 78.3877 45.0775 78.3718C45.1694 78.106 44.9305 77.7948 44.367 77.6662C43.9934 77.5817 43.4287 77.7299 42.9509 77.9014C42.5063 78.0619 42.1375 78.2432 42.0726 78.275C42.102 78.2591 42.1314 78.2407 42.162 78.2224C42.1633 78.2224 42.1633 78.2211 42.1645 78.2199C42.2098 78.1893 42.2564 78.1574 42.3041 78.1195C42.7304 77.7899 43.2327 77.2068 43.915 76.7046C44.7309 76.1056 46.7301 74.3832 47.2005 74.012C47.6709 73.6396 47.2029 73.0859 46.9261 73.0161C46.6504 72.9451 46.2658 73.244 45.6655 73.6923C45.0653 74.1407 42.8027 75.9929 42.4438 76.0186C42.0849 76.0443 42.1535 75.7454 42.3715 75.6401C42.5896 75.5347 43.4226 74.8671 43.8807 74.6307C44.3376 74.3955 45.6349 72.6339 46.1286 72.2836C46.6235 71.932 46.512 71.3085 46.1825 71.1284C45.8542 70.9483 45.592 71.0794 45.1082 71.5657C44.6231 72.0508 43.2045 73.3701 42.1339 74.1909C41.0632 75.0116 41.1183 74.5106 41.4038 74.4004L41.4062 74.3979Z" fill="#FFC7A0"/>
<path id="Vector_35" opacity="0.1" d="M33.9459 77.7852C33.9459 77.7852 35.3792 78.726 35.8128 80.0036C35.8128 80.0036 35.4024 78.9244 33.9459 77.7852Z" fill="black"/>
<path id="Vector_36" opacity="0.1" d="M42.1424 77.9331C42.0946 77.9699 42.0493 78.0029 42.0027 78.0336C42.0015 78.0336 42.0003 78.0348 41.9991 78.036C41.9586 78.0605 41.9256 78.0801 41.9109 78.0887C41.9072 78.0911 41.9047 78.0924 41.9023 78.0936C41.9023 78.0936 41.5544 78.3655 41.0325 78.4121C40.5266 78.4574 40.3282 78.5432 40.3171 78.5481C40.3306 78.537 40.5511 78.3606 41.0681 78.3239C41.0962 78.3214 41.1256 78.3178 41.1526 78.3092C41.302 78.2675 41.808 78.1193 42.1436 77.9331H42.1424Z" fill="black"/>
<path id="Vector_37" opacity="0.1" d="M42.4242 75.9585C42.4242 75.9585 42.9179 76.4656 42.8811 76.9091C42.8811 76.9091 42.9289 76.3211 42.4242 75.9585Z" fill="black"/>
<path id="Vector_38" opacity="0.1" d="M39.271 73.6382C39.271 73.6382 38.7418 73.169 38.2996 73.2266C38.2996 73.2266 38.8851 73.1506 39.271 73.6382Z" fill="black"/>
<path id="Vector_39" opacity="0.1" d="M41.0032 74.36C41.0032 74.36 40.572 73.7989 40.1285 73.772C40.1285 73.772 40.7178 73.8087 41.0032 74.36Z" fill="black"/>
<path id="Vector_40" opacity="0.1" d="M42.0138 75.6082C42.0138 75.6082 41.8681 74.916 41.4797 74.6992C41.4797 74.6992 41.9942 74.9871 42.0138 75.6082Z" fill="black"/>
<path id="Vector_41" opacity="0.1" d="M40.387 72.2225C40.387 72.2225 39.9632 72.2666 39.6729 71.8403C39.6729 71.8403 39.9754 72.1809 40.387 72.2225Z" fill="black"/>
<path id="Vector_42" opacity="0.1" d="M42.347 72.0483C42.347 72.0483 42.4695 72.4452 42.8493 72.5408C42.8493 72.5408 42.5198 72.4318 42.347 72.0483Z" fill="black"/>
<path id="Vector_43" opacity="0.1" d="M44.4625 72.2236C44.4625 72.2236 44.585 72.6205 44.9648 72.7161C44.9648 72.7161 44.6352 72.6071 44.4625 72.2236Z" fill="black"/>
<path id="Vector_44" opacity="0.1" d="M45.3936 74.0806C45.3936 74.0806 45.4511 74.4922 45.8125 74.6453C45.8125 74.6453 45.5038 74.4848 45.3936 74.0806Z" fill="black"/>
<path id="Vector_45" opacity="0.1" d="M43.9493 75.062C43.9493 75.062 44.0192 75.5618 44.4577 75.748C44.4577 75.748 44.0829 75.5532 43.9493 75.062Z" fill="black"/>
<path id="Vector_46" opacity="0.1" d="M39.1705 72.2163C39.1705 72.2163 39.293 72.6132 39.6728 72.7088C39.6728 72.7088 39.3433 72.5997 39.1705 72.2163Z" fill="black"/>
<path id="Vector_47" opacity="0.1" d="M41.2004 72.8579C41.2004 72.8579 41.3499 73.343 41.8129 73.4582C41.8129 73.4582 41.4111 73.3246 41.2004 72.8579Z" fill="black"/>
<path id="Vector_48" opacity="0.1" d="M43.011 73.5244C43.011 73.5244 43.1604 74.0095 43.6235 74.1247C43.6235 74.1247 43.2217 73.9911 43.011 73.5244Z" fill="black"/>
<path id="Vector_49" opacity="0.05" d="M39.4585 80.5108C39.4585 80.5108 40.1543 79.8199 40.327 78.6953C40.327 78.6953 40.2915 79.7782 39.4585 80.5108Z" fill="black"/>
<path id="Vector_50" opacity="0.1" d="M42.1963 78.1724C42.1963 78.1724 42.3114 78.7175 42.8664 78.8804C42.8664 78.8804 42.4633 78.7689 42.1963 78.1724Z" fill="black"/>
<g id="Group_14" opacity="0.05">
<path id="Vector_51" d="M36.8982 78.0606C36.8921 78.0606 36.8859 78.0581 36.8823 78.052C36.8774 78.0434 36.8798 78.0336 36.8884 78.0287C36.8945 78.025 37.5462 77.6379 38.4233 77.3562C39.2343 77.0965 40.4078 76.876 41.3988 77.3035C41.4074 77.3072 41.4111 77.317 41.4074 77.3256C41.4037 77.3341 41.3939 77.3378 41.3854 77.3341C39.5062 76.5244 36.9313 78.041 36.9055 78.0569C36.9031 78.0581 36.9006 78.0593 36.8982 78.0593V78.0606Z" fill="black"/>
</g>
<g id="Group_15" opacity="0.05">
<path id="Vector_52" d="M41.8533 77.5328C41.8533 77.5328 41.8423 77.5316 41.8386 77.5267C41.3082 76.902 36.2465 75.3572 36.195 75.3425C36.1864 75.3401 36.1815 75.3303 36.184 75.3217C36.1864 75.3131 36.1962 75.3082 36.2048 75.3107C36.4143 75.3744 41.3265 76.8738 41.8643 77.5059C41.8704 77.5132 41.8692 77.5243 41.8619 77.5292C41.8594 77.5316 41.8557 77.5328 41.8521 77.5328H41.8533Z" fill="black"/>
</g>
<g id="Group_16" opacity="0.05">
<path id="Vector_53" d="M40.9774 76.0433H40.975C39.7512 75.9281 37.2057 74.2891 37.1812 74.2719C37.1738 74.267 37.1714 74.256 37.1763 74.2487C37.1812 74.2413 37.1922 74.2389 37.1995 74.2438C37.2253 74.2597 39.7622 75.8951 40.9787 76.009C40.9885 76.009 40.9946 76.0176 40.9934 76.0274C40.9934 76.0359 40.986 76.0421 40.9774 76.0433Z" fill="black"/>
</g>
</g>
<g id="head">
<path id="Vector_54" d="M58.8234 93.1477L58.8075 96.2862L56.5069 97.1069L49.2463 97.924C49.2463 97.924 43.0319 96.334 43.6628 93.9489C43.6628 93.9489 46.8857 92.7925 46.9543 91.3494C46.9862 90.6781 46.9176 89.0207 46.8355 87.438C46.74 85.6103 46.6261 83.8818 46.6261 83.8818L57.727 88.0334C57.7233 88.053 57.7221 88.0713 57.7221 88.0897C57.7221 88.1142 57.7184 88.1485 57.716 88.1877C57.716 88.1914 57.716 88.1938 57.716 88.1975C57.7111 88.2588 57.7062 88.3323 57.6988 88.4045V88.4082C57.6939 88.4707 57.6866 88.5319 57.6804 88.5858C57.6755 88.6385 57.6694 88.6949 57.6633 88.7586C57.6535 88.8615 57.6572 89.1408 57.6657 89.4752C57.6694 89.5842 57.6707 89.7263 57.6719 89.888C57.6792 90.6267 57.678 91.777 57.6768 91.9852C57.6768 92.0342 57.8238 92.0808 57.8238 92.1298C57.8262 92.3515 58.8001 92.9395 58.8258 93.1502L58.8234 93.1477Z" fill="#FFC7A0"/>
<path id="Vector_55" d="M58.8626 79.4619C60.0998 85.2084 57.6658 90.5163 54.1463 91.1938C50.1332 91.9667 45.9082 88.0933 44.671 82.3468C43.4337 76.6003 43.0086 71.6538 49.6653 70.3847C58.168 68.7628 57.6253 73.7155 58.8626 79.4619Z" fill="#FFC7A0"/>
<path id="Vector_56" opacity="0.08" d="M57.6608 88.7561C57.651 88.859 57.6547 89.1383 57.6633 89.4727C57.6669 89.5817 57.6682 89.7238 57.6694 89.8855C51.7036 94.5013 48.1903 89.5976 47.2765 88.0321C47.1209 87.7675 47.0413 87.5972 47.0364 87.585C51.7416 94.0946 56.611 89.9027 57.6878 88.4167C57.6914 88.4118 57.6939 88.4094 57.6963 88.4045C57.6914 88.467 57.6841 88.5282 57.678 88.5821C57.6731 88.6348 57.6669 88.6911 57.6608 88.7548V88.7561Z" fill="black"/>
<g id="Group_17">
<path id="Vector_57" d="M44.5497 81.7736C44.5497 81.7736 42.6681 79.93 42.3655 82.1901C42.0617 84.4502 45.2822 87.6671 46.0919 86.2301C46.9017 84.7932 44.5497 81.7736 44.5497 81.7736Z" fill="#FFC7A0"/>
<path id="Vector_58" opacity="0.1" d="M43.6652 82.4721C43.5574 82.4108 43.4349 82.4525 43.392 82.5664C43.3492 82.6803 43.4006 82.8224 43.5084 82.8849C43.5146 82.8886 43.9323 83.136 44.2838 83.6713C44.0045 83.675 43.7669 83.7742 43.7277 83.7914C43.6248 83.8367 43.5844 83.9727 43.637 84.094C43.6787 84.1883 43.7644 84.2471 43.8502 84.2459C43.8735 84.2459 43.898 84.241 43.92 84.2312C44.0205 84.1871 44.328 84.0927 44.546 84.1724C44.6428 84.4137 44.7175 84.6905 44.7481 85.0054C44.7604 85.1352 44.8645 85.2406 44.9796 85.2406C44.9796 85.2406 44.9821 85.2406 44.9833 85.2406C45.0972 85.2393 45.1781 85.1352 45.1659 85.0066C44.9956 83.2548 43.7216 82.5027 43.6677 82.4721H43.6652Z" fill="#272727"/>
</g>
<path id="Vector_59" opacity="0.1" d="M49.1335 76.648C49.1335 76.648 53.6011 75.8334 55.2291 73.4973C56.8572 71.1612 53.1932 73.9052 53.1932 73.9052L49.1335 76.6468V76.648Z" fill="#272727"/>
<path id="Vector_60" d="M54.9278 73.4093C54.9278 73.4093 52.7816 75.6266 49.1324 76.6482C49.1324 76.6482 50.0315 75.1831 50.4725 74.8095C50.4725 74.8095 49.0785 75.5273 48.3594 76.5747C48.3594 76.5747 48.2197 76.0933 48.6754 75.4796C48.6754 75.4796 46.1176 77.1137 45.7171 78.8495C45.7171 78.8495 45.3826 78.2236 45.4659 77.4065C45.4659 77.4065 44.3647 80.3036 45.6142 83.447C45.6142 83.447 44.3193 80.5204 42.6938 81.3681C42.6938 81.3681 42.145 80.1554 41.4773 79.2305C40.8097 78.3056 40.0551 75.5825 41.2311 74.099C41.2311 74.099 40.3601 74.7556 40.3026 75.7172C40.3026 75.7172 39.8579 74.1296 41.2458 73.0553C42.635 71.981 43.37 68.3145 46.4263 67.7535C49.4827 67.1924 51.2345 66.2627 51.9021 64.9274C51.9021 64.9274 52.2573 65.192 52.2512 65.9662C52.2512 65.9662 52.936 65.3709 52.6322 64.1152C52.6322 64.1152 53.4431 64.5685 53.6293 65.9638C53.6293 65.9638 55.8392 66.858 56.1908 67.7486C56.1908 67.7486 56.2729 66.6044 55.0993 66.0054C55.0993 66.0054 58.6188 66.3447 57.6339 70.7082C57.6339 70.7082 58.1741 69.9303 58.4852 70.2623C58.4852 70.2623 57.8372 70.5832 57.9401 71.0108C57.9401 71.0108 60.3926 71.6845 60.199 74.1272C60.199 74.1272 59.2594 72.4465 58.4975 72.7576C58.4975 72.7576 59.0328 74.8646 58.8466 76.0565C58.6604 77.2485 58.8025 79.0713 58.8025 79.0713C58.8025 79.0713 58.3701 78.1978 58.19 77.159C58.0087 76.1202 57.2541 74.3415 54.9254 73.4093H54.9278Z" fill="#262626"/>
<path id="Vector_61" opacity="0.15" d="M45.6766 76.8332C45.6766 76.8332 47.2924 72.5384 50.4027 71.8181C53.513 71.0978 53.8241 68.8438 53.8241 68.8438" stroke="#FEFEFE" stroke-width="0.5" stroke-miterlimit="10" stroke-linecap="round"/>
<path id="Vector_62" opacity="0.15" d="M49.2488 74.9627C49.2488 74.9627 50.8744 72.7466 52.386 72.3804" stroke="#FEFEFE" stroke-width="0.5" stroke-miterlimit="10" stroke-linecap="round"/>
<path id="Vector_63" opacity="0.15" d="M50.9589 74.4861C50.9589 74.4861 54.1083 73.2244 54.5971 71.8315" stroke="#FEFEFE" stroke-width="0.5" stroke-miterlimit="10" stroke-linecap="round"/>
<path id="Vector_64" opacity="0.15" d="M55.6971 72.7379C55.6971 72.7379 58.1778 70.8428 57.7221 68.127" stroke="#FEFEFE" stroke-width="0.5" stroke-miterlimit="10" stroke-linecap="round"/>
<path id="Vector_65" opacity="0.15" d="M58.4362 72.6704C58.4362 72.6704 57.847 72.6741 56.6061 73.1653" stroke="#FEFEFE" stroke-width="0.5" stroke-miterlimit="10" stroke-linecap="round"/>
<path id="Vector_66" opacity="0.15" d="M42.058 73.2585C42.058 73.2585 42.8873 73.0025 43.2095 72.5542C43.5317 72.1058 46.163 68.312 48.8273 68.3083C51.4917 68.3046 52.3284 66.3042 52.3284 66.3042" stroke="#FEFEFE" stroke-width="0.5" stroke-miterlimit="10" stroke-linecap="round"/>
<path id="Vector_67" opacity="0.15" d="M43.9824 80.5182C43.9824 80.5182 41.7689 76.2049 44.3548 74.0894" stroke="#FEFEFE" stroke-width="0.5" stroke-miterlimit="10" stroke-linecap="round"/>
<path id="Vector_68" opacity="0.15" d="M53.8168 66.3091C53.8168 66.3091 53.2729 68.3818 51.3141 69.1339" stroke="#FEFEFE" stroke-width="0.5" stroke-miterlimit="10" stroke-linecap="round"/>
<path id="Vector_69" opacity="0.15" d="M56.5999 68.3037C56.5999 68.3037 56.829 70.3164 55.74 71.2266" stroke="#FEFEFE" stroke-width="0.5" stroke-miterlimit="10" stroke-linecap="round"/>
<path id="Vector_70" opacity="0.15" d="M46.272 74.1125C46.272 74.1125 47.8436 70.4497 49.3798 69.6167" stroke="#FEFEFE" stroke-width="0.5" stroke-miterlimit="10" stroke-linecap="round"/>
</g>
<g id="Group_18">
<g id="Group_19">
<path id="Vector_71" d="M28.741 148.513C28.741 148.513 32.1942 148.574 33.6005 146.577C35.0068 144.582 39.9117 129.114 39.9117 129.114L34.9088 123.326L29.3167 141.016C29.3167 141.016 28.5254 147.767 28.741 148.512V148.513Z" fill="#E6AF2E"/>
<path id="Vector_72" d="M28.741 148.513C28.741 148.513 32.1942 148.574 33.6005 146.577C35.0068 144.582 39.9117 129.114 39.9117 129.114L34.9088 123.326L29.3167 141.016C29.3167 141.016 28.5254 147.767 28.741 148.512V148.513Z" fill="#48286E"/>
</g>
<path id="Vector_73" d="M64.484 135.391C64.484 135.391 59.1185 136.395 52.3026 136.049C52.1213 136.04 51.9376 136.03 51.7538 136.018C46.9322 135.725 41.4516 134.741 36.6532 132.26C36.6532 132.26 36.5503 131.705 36.4144 130.818C36.0799 128.645 35.5458 124.483 35.8349 121.677C36.2429 117.726 44.9416 90.5055 46.9347 89.7056C46.9347 89.7056 46.8575 92.5855 52.653 95.2364C52.653 95.2364 52.7142 95.283 52.8453 95.3112C52.9555 95.3369 53.116 95.3504 53.3304 95.3112C53.7787 95.2315 54.4672 94.9302 55.4288 94.0482C57.3876 92.2523 57.5664 92.3234 57.673 91.1854C57.7049 90.8473 58.054 91.1854 58.054 91.1854L60.0005 92.5194L62.0414 104.172L64.3113 133.2L64.4816 135.387L64.484 135.391Z" fill="white"/>
<path id="Vector_74" opacity="0.15" d="M52.8465 95.3159C52.8097 95.3968 51.6043 97.9938 49.6211 99.318C49.6211 99.318 48.4879 98.4458 46.3944 95.2412C46.4838 95.3588 49.3944 99.171 49.6823 99.0559C49.9469 98.9493 51.9706 96.6463 52.675 95.5977C52.6811 95.5867 52.6885 95.5756 52.6958 95.5658C52.7571 95.474 52.8073 95.3931 52.8428 95.3245C52.8453 95.3196 52.8477 95.3184 52.8477 95.3159H52.8465Z" fill="black"/>
<path id="Vector_75" opacity="0.15" d="M59.3795 93.7593C59.2876 94.4588 58.8233 97.1243 56.8964 99.7128C56.8572 99.7667 56.7764 99.7703 56.7298 99.7201C56.3243 99.2681 54.5432 97.3032 53.3415 95.326C53.3378 95.3224 53.3378 95.3199 53.3353 95.3163C53.4346 95.4388 56.5889 99.3796 56.7911 99.4947C56.9883 99.6074 59.1296 95.4155 59.3795 93.7593Z" fill="black"/>
<path id="Vector_76" opacity="0.15" d="M53.2642 95.4423C51.9829 97.9854 52.2977 105.551 52.3001 107.474C52.3038 109.373 52.1605 133.296 52.2879 135.848C52.1115 135.834 51.9339 135.82 51.755 135.804C51.7832 133.065 52.0539 104.99 52.0539 101.364C52.0539 98.7707 52.4202 96.905 52.6554 95.9777C52.7546 95.5869 52.8293 95.3627 52.8428 95.3198C52.8428 95.3174 52.8428 95.315 52.8453 95.315C52.8477 95.315 52.8453 95.3125 52.8453 95.3125C52.9506 95.337 53.0988 95.3505 53.2973 95.3186C53.3169 95.3149 53.3304 95.3137 53.3304 95.3137C53.3071 95.3542 53.2838 95.397 53.263 95.4411L53.2642 95.4423Z" fill="black"/>
<path id="Vector_77" opacity="0.2" d="M52.8441 95.3208C52.8306 95.3625 52.7546 95.5866 52.6566 95.9774C51.7967 98.2865 49.6995 99.2825 49.6211 99.318C51.5725 98.0146 52.7718 95.4776 52.8441 95.322V95.3208Z" fill="black"/>
<path id="Vector_78" opacity="0.2" d="M56.731 99.72C54.3754 98.1288 53.2655 95.4423 53.2655 95.4423C53.2876 95.3982 53.3096 95.3554 53.3329 95.3149L53.3427 95.3272C54.5444 97.3043 56.3256 99.268 56.731 99.7213V99.72Z" fill="black"/>
<path id="Vector_79" opacity="0.15" d="M53.2802 97.9791C53.5204 97.9791 53.7151 97.7844 53.7151 97.5443C53.7151 97.3041 53.5204 97.1094 53.2802 97.1094C53.04 97.1094 52.8453 97.3041 52.8453 97.5443C52.8453 97.7844 53.04 97.9791 53.2802 97.9791Z" fill="black"/>
<path id="Vector_80" opacity="0.15" d="M53.0499 106.674C53.29 106.674 53.4847 106.48 53.4847 106.24C53.4847 105.999 53.29 105.805 53.0499 105.805C52.8097 105.805 52.615 105.999 52.615 106.24C52.615 106.48 52.8097 106.674 53.0499 106.674Z" fill="black"/>
<path id="Vector_81" opacity="0.15" d="M53.0499 115.371C53.29 115.371 53.4847 115.176 53.4847 114.936C53.4847 114.696 53.29 114.501 53.0499 114.501C52.8097 114.501 52.615 114.696 52.615 114.936C52.615 115.176 52.8097 115.371 53.0499 115.371Z" fill="black"/>
<path id="Vector_82" opacity="0.15" d="M53.0499 124.067C53.29 124.067 53.4847 123.872 53.4847 123.632C53.4847 123.392 53.29 123.197 53.0499 123.197C52.8097 123.197 52.615 123.392 52.615 123.632C52.615 123.872 52.8097 124.067 53.0499 124.067Z" fill="black"/>
<path id="Vector_83" opacity="0.15" d="M53.0499 132.259C53.29 132.259 53.4847 132.065 53.4847 131.825C53.4847 131.584 53.29 131.39 53.0499 131.39C52.8097 131.39 52.615 131.584 52.615 131.825C52.615 132.065 52.8097 132.259 53.0499 132.259Z" fill="black"/>
</g>
<g id="Group_20">
<g id="Group_21">
<path id="Vector_84" d="M61.9801 225.54C61.9801 225.54 62.5069 223.011 62.2251 221.354C61.9434 219.695 68.9173 219.988 68.9173 219.988C68.9173 219.988 68.7703 222.591 69.4514 223.481C70.1325 224.369 69.7246 225.949 69.7246 225.949L66.8385 228.735L63.6718 228.115C63.6718 228.115 61.7951 226.664 61.9801 225.541V225.54Z" fill="#FFC7A0"/>
<path id="Vector_85" d="M61.032 232.167C61.1042 232.285 61.1949 232.38 61.3247 232.457H79.2012C81.9194 232.021 83.3331 231.394 83.6271 231.055C84.1024 230.502 83.3882 229.474 82.8039 229.157C82.761 229.134 82.7194 229.116 82.6802 229.101C82.1289 228.894 79.3996 228.635 77.9468 228.136C77.9149 228.125 77.8831 228.112 77.8512 228.101C77.763 228.068 77.6797 228.034 77.6038 228.001C76.293 227.409 72.3547 225.92 70.8075 224.443C69.2591 222.967 69.5653 223.47 69.0729 223.907C68.611 224.317 67.7523 225.003 67.767 225.917C67.767 225.977 67.7732 226.038 67.7817 226.101C67.9275 227.105 64.1471 228.339 62.2031 225.775C62.2031 225.775 61.5489 224.895 61.3639 225.836C61.1777 226.777 60.5248 229.771 60.945 230.416C60.945 230.416 60.5481 231.387 61.0307 232.168L61.032 232.167Z" fill="#3F3F3F"/>
<path id="Vector_86" opacity="0.25" d="M76.4229 229.2C71.2289 229.074 67.783 226.098 67.783 226.098C67.7744 226.037 67.7695 225.975 67.7683 225.915C71.5389 228.821 75.4099 229.161 76.4229 229.199V229.2Z" fill="black"/>
<path id="Vector_87" opacity="0.35" d="M76.6495 229.204C76.6165 229.204 76.5577 229.204 76.4756 229.202C76.5332 229.202 76.592 229.204 76.6495 229.204Z" fill="#191716"/>
<path id="Vector_88" opacity="0.25" d="M77.9468 228.134C77.8647 228.477 77.5719 228.913 76.6924 229.199C76.8051 229.156 77.5928 228.836 77.8512 228.1C77.8819 228.111 77.9149 228.123 77.9468 228.134Z" fill="black"/>
<path id="Vector_89" opacity="0.25" d="M61.032 232.167C61.1042 232.285 61.1949 232.38 61.3247 232.457H79.2012C81.9194 232.021 83.3331 231.394 83.6271 231.055C84.1024 230.502 83.3882 229.475 82.8039 229.157C83.082 229.735 79.7928 230.447 72.6119 231.014C65.4322 231.58 60.9462 230.415 60.9462 230.415C60.9462 230.415 60.5493 231.385 61.032 232.167Z" fill="black"/>
<path id="Vector_90" opacity="0.25" d="M60.8862 228.542C60.8862 228.542 63.2799 228.222 63.2566 226.732C63.2566 226.732 63.5518 228.247 60.8862 228.542Z" fill="black"/>
</g>
<g id="Group_22">
<path id="Vector_91" d="M33.1865 225.54C33.1865 225.54 33.7133 223.011 33.4315 221.354C33.1498 219.695 40.1237 219.988 40.1237 219.988C40.1237 219.988 39.9767 222.591 40.6578 223.481C41.3389 224.369 40.931 225.949 40.931 225.949L38.0449 228.735L34.8783 228.115C34.8783 228.115 33.0016 226.664 33.1865 225.541V225.54Z" fill="#FFC7A0"/>
<path id="Vector_92" d="M32.2372 232.167C32.3095 232.285 32.4001 232.38 32.5299 232.457H50.4064C53.1247 232.021 54.5383 231.394 54.8323 231.055C55.3076 230.502 54.5934 229.474 54.0091 229.157C53.9662 229.134 53.9246 229.116 53.8854 229.101C53.3341 228.894 50.6048 228.635 49.152 228.136C49.1201 228.125 49.0883 228.112 49.0564 228.101C48.9682 228.068 48.8849 228.034 48.809 228.001C47.4982 227.409 43.5598 225.92 42.0127 224.443C40.4643 222.967 40.7705 223.47 40.2781 223.907C39.8162 224.317 38.9575 225.003 38.9722 225.917C38.9722 225.977 38.9784 226.038 38.9869 226.101C39.1327 227.105 35.3523 228.339 33.4083 225.775C33.4083 225.775 32.7541 224.895 32.5691 225.836C32.3829 226.777 31.73 229.771 32.1502 230.416C32.1502 230.416 31.7533 231.387 32.2359 232.168L32.2372 232.167Z" fill="#3F3F3F"/>
<path id="Vector_93" opacity="0.25" d="M47.6294 229.2C42.4354 229.074 38.9894 226.098 38.9894 226.098C38.9809 226.037 38.976 225.975 38.9747 225.915C42.7453 228.821 46.6163 229.161 47.6294 229.199V229.2Z" fill="black"/>
<path id="Vector_94" opacity="0.35" d="M47.856 229.204C47.8229 229.204 47.7641 229.204 47.682 229.202C47.7396 229.202 47.7984 229.204 47.856 229.204Z" fill="#191716"/>
<path id="Vector_95" opacity="0.25" d="M49.152 228.134C49.0699 228.477 48.7771 228.913 47.8976 229.199C48.0103 229.156 48.798 228.836 49.0564 228.1C49.0871 228.111 49.1201 228.123 49.152 228.134Z" fill="black"/>
<path id="Vector_96" opacity="0.25" d="M32.2372 232.167C32.3094 232.285 32.4001 232.38 32.5299 232.457H50.4064C53.1246 232.021 54.5383 231.394 54.8323 231.055C55.3076 230.502 54.5934 229.475 54.0091 229.157C54.2872 229.735 50.998 230.447 43.8171 231.014C36.6374 231.58 32.1514 230.415 32.1514 230.415C32.1514 230.415 31.7545 231.385 32.2372 232.167Z" fill="black"/>
<path id="Vector_97" opacity="0.25" d="M32.0927 228.542C32.0927 228.542 34.4863 228.222 34.463 226.732C34.463 226.732 34.7583 228.247 32.0927 228.542Z" fill="black"/>
</g>
<g id="Group_23">
<path id="Vector_98" d="M69.8202 222.294C69.6597 222.851 61.6127 222.771 61.5318 221.895C61.4522 221.018 60.6559 207.393 59.9381 200.38C59.2215 193.368 59.0622 191.137 57.15 182.45C55.9715 177.097 53.8241 169.684 52.1949 164.934C51.1818 161.978 50.3708 160.054 50.1173 160.3C49.4619 160.936 48.7061 164.512 47.5117 166.982C47.5092 166.989 47.508 166.992 47.508 166.992C46.3124 169.462 43.3651 186.276 42.4867 189.384C41.6109 192.492 41.5312 202.533 41.3022 208.988C41.0731 215.442 41.372 221.658 40.893 222.534C40.4765 223.296 34.6921 222.732 33.1963 222.572C33.0077 222.552 32.8717 222.384 32.8876 222.194C33.1731 218.571 31.1788 199.817 31.3319 197.512C31.4911 195.122 33.2441 182.213 32.6867 176.316C32.1294 170.42 32.1294 156.156 32.6867 148.109C33.0457 142.921 34.5892 137.837 35.6414 134.88C36.2221 133.247 36.6521 132.262 36.6521 132.262C36.6521 132.262 47.5852 140.543 64.4816 135.393C65.5927 138.902 66.6143 141.651 66.6143 141.651C66.6143 141.651 66.6891 141.766 66.8152 141.968C67.3689 142.863 68.8928 145.462 69.0239 147.153C69.1378 148.647 68.7973 149.934 68.48 150.983C68.3563 151.389 68.2375 151.761 68.1493 152.094C68.0929 152.303 68.0745 153.178 68.0807 154.497C68.1101 160.719 68.7066 176.791 68.7066 179.028C68.7066 181.736 69.5825 191.856 70.2207 196.001C70.8577 200.144 69.9806 221.739 69.8226 222.297L69.8202 222.294Z" fill="#191716"/>
<g id="Group_24" opacity="0.4">
<path id="Vector_99" d="M50.0474 149.894C49.7926 149.894 49.6077 149.732 49.5807 149.48C49.4974 148.69 49.3737 139.066 49.3676 138.657V138.561L51.4084 137.397L51.4219 137.658C51.4243 137.702 51.6546 142.076 51.8604 145.708C52.0307 148.716 50.7212 149.84 50.0977 149.89C50.0805 149.891 50.0634 149.892 50.0474 149.892V149.894ZM49.6922 138.747C49.7057 139.773 49.8245 148.71 49.9017 149.445C49.909 149.514 49.9347 149.581 50.0719 149.57C50.6391 149.525 51.6865 148.315 51.5395 145.727C51.3619 142.605 51.1671 138.935 51.1144 137.936L49.691 138.747H49.6922Z" fill="black"/>
</g>
<g id="Group_25">
<path id="Vector_100" d="M66.0215 136.512L65.442 138.31C49.0172 142.365 35.6427 134.878 35.6427 134.878C36.2234 133.245 36.6546 132.26 36.6546 132.26C41.4529 134.742 46.9335 135.725 51.7551 136.018C51.9389 136.03 52.1226 136.04 52.3039 136.049C59.1198 136.394 64.4853 135.391 64.4853 135.391C65.1934 135.513 65.6834 135.937 66.0227 136.512H66.0215Z" fill="#070606"/>
<path id="Vector_101" d="M54.972 139.629C54.9585 139.773 54.8385 139.879 54.6952 139.878C53.6 139.858 48.994 139.741 47.061 139.102C46.9495 139.066 46.8748 138.962 46.8735 138.845C46.8686 138.339 46.8735 136.915 47.0328 135.513C47.0499 135.358 47.192 135.247 47.3464 135.271C48.0385 135.375 49.9201 135.646 51.7564 135.805C51.9352 135.821 52.1129 135.835 52.2893 135.849C53.2019 135.915 54.0716 135.948 54.7442 135.91C54.901 135.9 55.032 136.025 55.0333 136.182C55.0369 136.931 55.0394 138.902 54.972 139.63V139.629Z" fill="#EDEDED"/>
</g>
<path id="Vector_102" opacity="0.4" d="M52.1961 164.934C51.183 161.978 50.3708 160.054 50.1185 160.299C49.4619 160.935 48.706 164.51 47.5129 166.981C47.6219 166.659 50.056 159.498 49.8514 157.949C49.6432 156.365 46.3099 155.949 46.3099 155.949C46.3099 155.949 49.5758 155.907 50.3108 157.783C51.0421 159.65 54.6118 159.369 55.5072 158.71C55.3247 158.857 53.1344 160.535 50.6734 158.857C49.6946 158.191 52.4962 161.624 52.1948 164.934H52.1961Z" fill="black"/>
<path id="Vector_103" opacity="0.4" d="M68.1481 152.09C68.1481 152.09 66.6916 151.665 66.1918 150.43C66.1918 150.43 66.7295 152.066 68.1481 152.09Z" fill="black"/>
<path id="Vector_104" opacity="0.4" d="M60.0997 193.463C60.0997 193.463 65.0598 191.017 69.2713 193.055C69.2713 193.055 65.9418 190.406 60.0997 193.463Z" fill="black"/>
<path id="Vector_105" opacity="0.4" d="M40.7362 193.803C40.7362 193.803 36.3201 191.492 32.5839 193.463C32.5839 193.463 35.9808 192.172 40.7362 193.803Z" fill="black"/>
</g>
</g>
<g id="Group_26">
<path id="Vector_106" d="M96.786 104.072C96.786 104.072 97.57 103.624 97.8812 102.894C98.1923 102.164 99.557 98.7853 100.071 98.5146C100.586 98.2438 102.789 96.5007 103.423 97.0678C104.058 97.635 105.112 98.419 105.072 99.3794C105.031 100.34 103.302 103.745 103.302 103.745C103.302 103.745 102.423 105.219 101.463 105.907C100.503 106.596 100.301 106.799 100.112 106.826C99.9232 106.853 98.6113 107.758 98.6113 107.758L96.7872 104.071L96.786 104.072Z" fill="#FFC7A0"/>
<g id="Group_27">
<path id="Vector_107" d="M140.332 50.9036L168.185 100.025C168.232 100.107 168.202 100.212 168.12 100.259L117.553 128.93C117.471 128.977 117.366 128.947 117.319 128.865L82.0983 66.7466C82.0517 66.6645 82.0811 66.5591 82.1632 66.5126L118.935 45.6631L125.103 56.5423C125.814 57.7955 127.404 58.2353 128.657 57.5248L140.334 50.9049L140.332 50.9036Z" fill="#EDE8F7"/>
<path id="Vector_108" d="M125.701 54.7084L121.221 46.8071L136.889 50.6451L128.404 55.4556C127.451 55.9959 126.241 55.6614 125.701 54.7084Z" fill="#D8CBF7"/>
<path id="Vector_109" d="M104.499 85.7929L107.233 75.955L123.628 80.512L128.234 63.9438L137.813 66.6058L133.207 83.1739L149.689 87.7554L146.955 97.5934L130.472 93.0119L125.866 109.58L116.288 106.918L120.894 90.3499L104.499 85.7929Z" fill="#D8CBF7"/>
</g>
<g id="Group_28">
<path id="Vector_110" d="M104.49 99.694C104.49 100.273 104.124 100.794 103.381 101.041C102.64 101.288 102.035 101.621 101.934 102.004C101.831 102.388 101.575 103.275 101.208 103.778C100.856 104.262 100.58 105.286 100.562 105.36C100.562 105.361 100.56 105.362 100.56 105.363L99.3757 100.658C99.3757 100.658 100.015 100.752 100.459 100.504C100.902 100.257 101.883 100.035 102.317 99.95C102.752 99.8655 103.357 99.5323 103.716 99.2946C104.074 99.0557 104.49 99.1158 104.49 99.6952V99.694Z" fill="#FFC7A0"/>
<path id="Vector_111" opacity="0.6" d="M103.584 100.059C103.326 100.112 103.157 99.6205 103.157 99.6205C103.366 99.5127 103.562 99.3939 103.715 99.2934C103.816 99.226 103.922 99.1819 104.02 99.1685C104.079 99.1966 104.132 99.264 104.167 99.3988C104.272 99.8079 103.842 100.009 103.584 100.059Z" fill="white"/>
<path id="Vector_112" opacity="0.15" d="M102.041 101.794C102.041 101.794 101.502 101.904 101.152 101.758C101.152 101.758 101.619 102.039 102.041 101.794Z" fill="#050505"/>
<path id="Vector_113" opacity="0.15" d="M104.533 99.3352C104.27 98.7558 103.792 99.0975 103.11 99.4981C102.427 99.8999 101.439 99.8742 100.756 100.24C100.074 100.607 99.3745 100.658 99.3745 100.658C99.3745 100.658 100.014 100.753 100.457 100.504C100.901 100.258 101.882 100.035 102.316 99.9501C102.567 99.9011 102.873 99.7713 103.157 99.6231C103.366 99.5153 103.562 99.3964 103.715 99.296C103.816 99.2286 103.922 99.1845 104.02 99.171C104.275 99.1331 104.49 99.2813 104.49 99.6966C104.49 100.276 104.124 100.797 103.381 101.044C102.64 101.29 102.035 101.623 101.934 102.007C101.831 102.39 101.575 103.277 101.208 103.781C100.867 104.25 100.597 105.225 100.564 105.351C100.994 104.197 101.064 104.162 101.464 103.644C101.773 103.242 101.847 102.622 102.023 102.164C102.023 102.18 102.096 103.358 101.816 103.789C101.816 103.789 102.155 103.494 102.09 102.008C102.127 101.935 102.168 101.867 102.214 101.81C102.558 101.387 103.792 101.051 104.107 100.83C104.422 100.608 104.798 99.9171 104.533 99.3376V99.3352Z" fill="#050505"/>
</g>
</g>
<g id="Group_29">
<path id="Vector_114" d="M66.6155 141.648C66.6155 141.648 65.5939 138.9 64.484 135.39C65.1921 135.512 65.6821 135.936 66.0214 136.511C67.0884 138.327 66.6155 141.647 66.6155 141.647V141.648Z" fill="#191716"/>
<path id="Vector_115" d="M46.9359 89.7065C46.9359 89.7065 45.8946 89.7065 42.826 92.8303C42.826 92.8303 40.512 94.7339 38.0448 94.4595C36.075 94.2403 33.3739 94.7878 32.6168 94.892C30.663 95.1615 32.2898 99.2873 32.2212 102.843C32.1869 104.614 32.5397 109.585 32.5397 109.585C32.5397 109.585 32.2787 114.714 32.0595 118.221C31.8402 121.728 29.1244 136.783 28.7397 140.784C28.3563 144.785 28.5204 149.389 28.7397 148.511C28.959 147.634 29.9451 141.606 32.0827 137.496C34.2204 133.386 36.7953 124.069 39.0432 120.398C41.2898 116.726 46.6615 100.668 46.6615 98.3109C46.6615 95.954 45.7292 90.8029 46.9359 89.7065Z" fill="#5A2F8D"/>
<path id="Vector_116" d="M69.9524 140.984C71.2104 147.182 72.4232 153.646 72.2492 154.385C72.052 155.226 68.8107 154.789 66.4293 154.466C65.9576 154.403 65.5865 154.033 65.5228 153.561C65.2863 151.82 64.5697 147.993 64.0515 145.291C63.6889 143.402 63.2063 141.538 62.6073 139.709C62.2471 138.61 61.8073 137.253 61.3516 135.811C60.0323 131.635 59.3806 126.289 59.3806 123.304C59.3806 117.811 60.575 100.748 59.595 97.5626C58.615 94.3789 60.0985 93.8007 58.0576 91.189C58.0576 91.189 59.6758 91.1939 61.2267 93.563C61.2267 93.563 65.5534 95.3589 67.1042 95.7668C68.6563 96.1759 72.8409 96.4038 72.923 101.628C73.0051 106.854 70.3162 110.501 70.3162 110.501C70.3162 110.501 68.7739 122.687 68.7617 124.682C68.7568 125.473 68.4162 133.576 69.2811 137.727C69.3117 137.877 69.3448 138.029 69.3754 138.184C69.3974 138.287 69.4183 138.389 69.4403 138.494C69.6094 139.308 69.7809 140.145 69.9499 140.985L69.9524 140.984Z" fill="#5A2F8D"/>
<path id="Vector_117" opacity="0.15" d="M59.3954 93.6392C59.3917 93.6676 59.388 93.7058 59.3806 93.7565C59.3868 93.7157 59.393 93.6762 59.3954 93.6392Z" fill="black"/>
<path id="Vector_118" opacity="0.15" d="M42.8261 92.8315C42.4623 93.1451 42.0911 93.4453 41.7395 93.7625C41.6538 93.8434 41.5656 93.9218 41.4872 94.0075C41.4455 94.0492 41.4112 94.0933 41.3745 94.1362C41.3451 94.1741 41.3291 94.2121 41.323 94.2574C41.3108 94.3481 41.3438 94.4632 41.3769 94.5735C41.4112 94.685 41.4516 94.7977 41.4896 94.9116C41.8057 95.8254 41.9355 96.7944 41.9637 97.7536C41.9992 98.7164 41.9147 99.6732 41.8645 100.626L41.7003 103.49C41.5901 105.399 41.4884 107.309 41.4149 109.22C41.3769 110.175 41.3426 111.131 41.3291 112.086C41.323 112.564 41.3206 113.042 41.3316 113.519C41.3389 113.758 41.3475 113.997 41.3659 114.235C41.3757 114.354 41.3867 114.472 41.4051 114.591C41.4222 114.709 41.4455 114.828 41.4945 114.937C41.4443 114.828 41.4186 114.71 41.4002 114.592C41.3794 114.475 41.3671 114.356 41.3561 114.236C41.334 113.998 41.3206 113.759 41.3108 113.519C41.2924 113.042 41.2875 112.563 41.285 112.085C41.285 111.128 41.301 110.171 41.3279 109.216C41.3843 107.304 41.47 105.393 41.5631 103.483L41.7162 100.618C41.764 99.6621 41.8449 98.7091 41.8069 97.7585C41.775 96.8091 41.6452 95.861 41.3328 94.9643C41.2948 94.8516 41.2556 94.7389 41.2189 94.6225C41.1858 94.5049 41.1429 94.3848 41.1576 94.2354C41.165 94.1619 41.1981 94.0859 41.2434 94.0308C41.2838 93.983 41.3255 93.934 41.3683 93.8912C41.4541 93.803 41.5435 93.7209 41.6366 93.6425C42.009 93.3338 42.4071 93.0643 42.8273 92.8315H42.8261Z" fill="black"/>
<path id="Vector_119" opacity="0.15" d="M61.2267 93.562C62.0303 94.4489 62.8462 95.3321 63.7429 96.1137C63.9683 96.3036 64.2047 96.491 64.4338 96.6894C64.5489 96.7887 64.6616 96.8928 64.7694 97.0079C64.876 97.1219 64.9801 97.2615 65.0353 97.4318C65.0916 97.6008 65.0904 97.7699 65.0867 97.9218C65.0818 98.0761 65.0757 98.2219 65.0683 98.3738L65.0157 99.2717C64.8625 101.664 64.1128 105.108 63.553 107.351C62.9001 109.855 62.3378 111.816 61.9421 114.18C61.7437 115.362 61.5158 116.539 61.2353 117.706C60.9536 118.869 60.624 120.028 60.1316 121.122C60.6069 120.021 60.9168 118.859 61.1802 117.693C61.4411 116.526 61.6506 115.346 61.8368 114.164C62.2055 111.799 62.6098 109.946 63.368 107.333C63.9487 104.87 64.6237 101.647 64.7511 99.257L64.7939 98.3616L64.8123 97.9157C64.816 97.7699 64.8123 97.6327 64.778 97.5163C64.7437 97.3987 64.6678 97.2885 64.5759 97.1807C64.484 97.0729 64.3811 96.9687 64.2733 96.8683C64.0589 96.6637 63.8323 96.4714 63.6106 96.2619C63.1745 95.843 62.7678 95.4007 62.3733 94.9499C61.9777 94.4991 61.5967 94.0361 61.228 93.5632L61.2267 93.562Z" fill="black"/>
<path id="Vector_120" d="M27.0872 95.1102C27.0713 95.2058 27.1558 95.2915 27.2563 95.2719C27.5968 95.2058 28.2608 95.0796 29.0558 94.94C30.2171 94.7379 31.0183 95.2364 32.2874 94.989C33.5577 94.7427 34.3564 107.995 32.5385 109.586C32.5385 109.586 32.4907 109.533 32.4025 109.446C32.1318 109.178 31.474 108.582 30.6275 108.196C30.5136 108.144 30.3972 108.095 30.2771 108.054C30.2747 108.054 30.2722 108.051 30.2698 108.05C30.0346 107.967 29.7884 107.902 29.5336 107.869C27.8676 107.642 23.1207 107.061 19.7115 104.359C16.3023 101.657 13.6257 99.1821 13.9038 96.6819C14.1819 94.1829 18.3224 89.991 19.9136 88.2735C21.5049 86.5573 28.3429 80.7104 29.8374 79.6128C31.605 78.3143 33.0971 77.1003 33.3494 77.3037C33.6018 77.5058 36.9852 80.839 36.9607 82.2012C36.9607 82.2012 29.0595 89.7693 27.0946 95.0821C27.0921 95.0919 27.0897 95.1005 27.0885 95.109L27.0872 95.1102Z" fill="#5A2F8D"/>
<path id="Vector_121" opacity="0.15" d="M27.2563 95.2718C27.2563 95.2718 25.5229 102.585 21.2268 100.038C21.7082 100.313 25.3146 102.093 27.0884 95.1089C27.0725 95.2044 27.157 95.2902 27.2575 95.2706L27.2563 95.2718Z" fill="black"/>
<path id="Vector_122" opacity="0.15" d="M32.5397 109.587C32.5397 109.587 32.4919 109.535 32.4037 109.448C32.133 109.179 31.4751 108.583 30.6287 108.197C30.9815 108.334 31.262 108.426 31.4862 108.49C31.9014 108.61 32.3277 108.342 32.4123 107.918C32.4172 107.894 32.4208 107.87 32.4257 107.847C33.4033 102.838 32.8716 99.0707 32.8349 98.8208C33.6189 102.277 32.5409 109.586 32.5409 109.586L32.5397 109.587Z" fill="black"/>
<g id="Group_30">
<path id="Vector_123" d="M99.1062 107.647C98.9653 107.914 97.5884 108.716 97.2516 108.694C96.9147 108.672 91.189 112.417 87.5949 113.718C84.0007 115.019 82.8235 116.542 78.7602 115.135C75.5776 114.033 74.3661 113.401 72.0545 111.763C72.0313 111.745 72.0067 111.728 71.9822 111.71C71.9357 111.679 71.8916 111.647 71.8475 111.615C71.3893 111.288 70.8846 110.92 70.315 110.504C70.1582 110.389 69.9953 110.269 69.8262 110.146C67.0455 108.111 68.7017 102.44 69.9892 99.1345C70.3824 98.1251 71.7189 97.9279 72.3963 98.7732C73.0737 99.6184 74.0893 100.721 75.5923 102.064C79.2269 105.31 81.5287 106.981 81.9023 107.246C81.9378 107.271 81.9795 107.283 82.0211 107.281C82.5307 107.244 85.9289 106.983 89.0661 106.339C92.4667 105.641 94.5088 105.006 94.8003 104.779C95.0919 104.553 96.4284 103.902 96.6403 103.948C96.8522 103.993 99.2434 107.381 99.1038 107.65L99.1062 107.647Z" fill="#5A2F8D"/>
<path id="Vector_124" opacity="0.15" d="M82.8958 110.052C83.0722 108.397 81.9036 107.244 81.9036 107.244C81.9391 107.269 81.9807 107.281 82.0224 107.278C83.1739 108.544 82.8946 110.052 82.8946 110.052H82.8958Z" fill="black"/>
<path id="Vector_125" opacity="0.15" d="M94.8027 104.777C94.8027 104.777 95.3589 107.233 97.2515 108.694C97.2515 108.694 95.6945 107.391 94.8027 104.777Z" fill="black"/>
<path id="Vector_126" opacity="0.15" d="M70.3163 110.5C70.3163 110.5 70.5392 107.455 70.6348 104.609C70.6801 103.274 70.696 101.982 70.6483 101.07C70.6568 101.122 70.7144 101.55 70.7426 102.607V102.61C70.7757 103.896 70.7622 106.111 70.5552 109.712C70.5356 110.053 70.6348 110.391 70.8406 110.66C71.0378 110.92 71.3551 111.256 71.8488 111.613C71.3906 111.286 70.8859 110.919 70.3163 110.502V110.5Z" fill="black"/>
</g>
</g>
</g>
<path id="line" d="M14.1549 232.477H230.846L230.845 232.887C230.845 233.182 230.604 233.421 230.309 233.421H14.6265C14.3656 233.421 14.1537 233.209 14.1537 232.948V232.476" fill="#0F0E0E"/>
</g>
</g>
</g>
</g>
<defs>
<clipPath id="clip0_2760_40532">
<rect width="245" height="245" fill="white"/>
</clipPath>
</defs>
</svg>
