<svg width="25" height="24" viewBox="0 0 25 24" fill="none" xmlns="http://www.w3.org/2000/svg">
<g id="vuesax/bulk/edit">
<g id="edit">
<path id="Vector" opacity="0.4" d="M15.98 3H8.02C4.57 3 2.5 5.06 2.5 8.52V16.47C2.5 19.94 4.57 22 8.02 22H15.97C19.43 22 21.49 19.94 21.49 16.48V8.52C21.5 5.06 19.43 3 15.98 3Z" fill="#216AC6"/>
<path id="Vector_2" d="M21.52 2.97979C19.73 1.17979 17.98 1.13979 16.14 2.97979L15.01 4.09979C14.91 4.19979 14.88 4.33979 14.92 4.46979C15.62 6.91979 17.58 8.87979 20.03 9.57979C20.06 9.58979 20.11 9.58979 20.14 9.58979C20.24 9.58979 20.34 9.54979 20.41 9.47979L21.52 8.35979C22.43 7.44979 22.88 6.57979 22.88 5.68979C22.88 4.78979 22.43 3.89979 21.52 2.97979Z" fill="#216AC6"/>
<path id="Vector_3" d="M18.3601 10.4198C18.0901 10.2898 17.8301 10.1598 17.5901 10.0098C17.3901 9.88984 17.1901 9.75984 17.0001 9.61984C16.8401 9.51984 16.6601 9.36984 16.4801 9.21984C16.4601 9.20984 16.4001 9.15984 16.3201 9.07984C16.0101 8.82984 15.6801 8.48984 15.3701 8.11984C15.3501 8.09984 15.2901 8.03984 15.2401 7.94984C15.1401 7.83984 14.9901 7.64984 14.8601 7.43984C14.7501 7.29984 14.6201 7.09984 14.5001 6.88984C14.3501 6.63984 14.2201 6.38984 14.1001 6.12984C13.9701 5.84984 13.8701 5.58984 13.7801 5.33984L8.4001 10.7198C8.0501 11.0698 7.7101 11.7298 7.6401 12.2198L7.2101 15.1998C7.1201 15.8298 7.2901 16.4198 7.6801 16.8098C8.0101 17.1398 8.4601 17.3098 8.9601 17.3098C9.0701 17.3098 9.1801 17.2998 9.2901 17.2898L12.2601 16.8698C12.7501 16.7998 13.4101 16.4698 13.7601 16.1098L19.1401 10.7298C18.8901 10.6498 18.6401 10.5398 18.3601 10.4198Z" fill="#216AC6"/>
</g>
</g>
</svg>
