<svg width="20" height="20" viewBox="0 0 20 20" fill="none" xmlns="http://www.w3.org/2000/svg">
<g id="icons/ic_close">
<path id="shape" d="M11.1679 9.99528L14.7465 6.42469C15.0729 6.09833 15.0729 5.56919 14.7465 5.24282C14.4202 4.91646 13.8911 4.91646 13.5647 5.24282L9.99439 8.82173L6.42406 5.24282C6.09772 4.91646 5.56861 4.91646 5.24227 5.24282C4.91593 5.56919 4.91593 6.09833 5.24227 6.42469L8.82092 9.99528L5.24227 13.5659C5.08472 13.7221 4.99609 13.9349 4.99609 14.1568C4.99609 14.3787 5.08472 14.5915 5.24227 14.7477C5.39854 14.9053 5.61126 14.9939 5.83316 14.9939C6.05507 14.9939 6.26779 14.9053 6.42406 14.7477L9.99439 11.1688L13.5647 14.7477C13.721 14.9053 13.9337 14.9939 14.1556 14.9939C14.3775 14.9939 14.5902 14.9053 14.7465 14.7477C14.9041 14.5915 14.9927 14.3787 14.9927 14.1568C14.9927 13.9349 14.9041 13.7221 14.7465 13.5659L11.1679 9.99528Z" fill="#718096"/>
</g>
</svg>
