<svg width="64" height="64" viewBox="0 0 64 64" fill="none" xmlns="http://www.w3.org/2000/svg">
<rect x="0.242424" y="0.242424" width="63.5152" height="63.5152" rx="31.7576" stroke="#A0AEC0" stroke-width="0.484848" stroke-dasharray="1.94 1.94"/>
<circle cx="32.0001" cy="32.0001" r="28.1212" fill="#EDF2F7"/>
<rect width="34" height="24.5152" transform="translate(15 19.7427)" fill="#EDF2F7"/>
<path d="M30.5449 24.5912C31.0804 24.5912 31.5146 24.1571 31.5146 23.6216C31.5146 23.086 31.0804 22.6519 30.5449 22.6519C30.0093 22.6519 29.5752 23.086 29.5752 23.6216C29.5752 24.1571 30.0093 24.5912 30.5449 24.5912Z" stroke="#A0AEC0" stroke-width="0.727273" stroke-linecap="round" stroke-linejoin="round"/>
<path d="M32.4847 20.7124H30.5453C28.1211 20.7124 27.1514 21.6821 27.1514 24.1063V27.0154C27.1514 29.4397 28.1211 30.4094 30.5453 30.4094H33.4544C35.8786 30.4094 36.8483 29.4397 36.8483 27.0154V24.5912" stroke="#A0AEC0" stroke-width="0.727273" stroke-linecap="round" stroke-linejoin="round"/>
<path d="M33.8184 22.167H36.485" stroke="#A0AEC0" stroke-width="0.727273" stroke-linecap="round"/>
<path d="M35.1514 23.5002V20.8335" stroke="#A0AEC0" stroke-width="0.727273" stroke-linecap="round"/>
<path d="M27.4766 28.9305L29.8669 27.3256C30.2499 27.0687 30.8026 27.0978 31.1469 27.3935L31.3069 27.5341C31.685 27.859 32.296 27.859 32.6741 27.5341L34.6911 25.8032C35.0693 25.4784 35.6802 25.4784 36.0584 25.8032L36.8487 26.482" stroke="#A0AEC0" stroke-width="0.727273" stroke-linecap="round" stroke-linejoin="round"/>
<path d="M18.7044 39.8033C18.7044 40.1271 18.6511 40.4016 18.5444 40.6265C18.4377 40.8515 18.271 41.0231 18.044 41.1414C17.8191 41.2578 17.5262 41.316 17.1655 41.316C16.8009 41.316 16.5051 41.2559 16.2782 41.1356C16.0533 41.0154 15.8884 40.8389 15.7837 40.6062C15.6809 40.3734 15.6295 40.0874 15.6295 39.748V37.0513H16.188V39.8294C16.188 40.1688 16.2724 40.4229 16.4411 40.5916C16.6099 40.7604 16.8513 40.8447 17.1655 40.8447C17.3769 40.8447 17.5563 40.8079 17.7037 40.7342C17.853 40.6605 17.9665 40.549 18.044 40.3996C18.1236 40.2484 18.1633 40.0583 18.1633 39.8294V37.0513H18.7044V39.8033ZM19.5928 42.1945V38.2498H20.1281L20.1339 38.7734C20.1688 38.7114 20.2134 38.6464 20.2677 38.5785C20.324 38.5107 20.3918 38.4476 20.4714 38.3894C20.5528 38.3313 20.6469 38.2838 20.7535 38.2469C20.8622 38.2101 20.9853 38.1916 21.123 38.1916C21.3635 38.1916 21.5749 38.2469 21.7572 38.3574C21.9414 38.4661 22.0849 38.6328 22.1877 38.8578C22.2905 39.0828 22.3419 39.3679 22.3419 39.7131C22.3419 40.0583 22.2915 40.3502 22.1906 40.5887C22.0917 40.8253 21.9482 41.0057 21.7601 41.1298C21.572 41.2539 21.3451 41.316 21.0794 41.316C20.9455 41.316 20.8263 41.2966 20.7215 41.2578C20.6188 41.221 20.5286 41.1725 20.451 41.1124C20.3754 41.0503 20.3114 40.9844 20.259 40.9145C20.2086 40.8447 20.1669 40.7778 20.1339 40.7138V42.1945H19.5928ZM20.9775 40.8971C21.2258 40.8971 21.4285 40.803 21.5855 40.6149C21.7426 40.4248 21.8212 40.1301 21.8212 39.7305C21.8212 39.3873 21.7494 39.1148 21.6059 38.9131C21.4624 38.7114 21.2529 38.6105 20.9775 38.6105C20.6983 38.6105 20.4869 38.7143 20.3434 38.9218C20.1998 39.1274 20.1281 39.397 20.1281 39.7305C20.1281 39.9458 20.1601 40.1417 20.2241 40.3182C20.2881 40.4947 20.3831 40.6353 20.5092 40.74C20.6352 40.8447 20.7914 40.8971 20.9775 40.8971ZM23.8066 41.2956C23.6437 41.2956 23.5118 41.2733 23.411 41.2287C23.3121 41.1841 23.2355 41.124 23.1812 41.0484C23.1288 40.9727 23.0929 40.8864 23.0735 40.7894C23.0561 40.6905 23.0474 40.5887 23.0474 40.484V36.9349H23.5768V40.4316C23.5768 40.5829 23.6059 40.6964 23.6641 40.772C23.7242 40.8476 23.8076 40.8893 23.9143 40.8971L24.0772 40.9V41.2491C24.0326 41.2627 23.986 41.2733 23.9375 41.2811C23.8891 41.2908 23.8454 41.2956 23.8066 41.2956ZM25.9305 41.316C25.6532 41.316 25.4107 41.2568 25.2032 41.1385C24.9957 41.0183 24.8347 40.8428 24.7203 40.612C24.6059 40.3812 24.5487 40.099 24.5487 39.7654C24.5487 39.4513 24.602 39.1759 24.7087 38.9393C24.8153 38.7027 24.9715 38.5194 25.177 38.3894C25.3846 38.2576 25.6357 38.1916 25.9305 38.1916C26.2078 38.1916 26.4483 38.2527 26.652 38.3749C26.8575 38.4951 27.0166 38.6726 27.129 38.9073C27.2415 39.1419 27.2978 39.428 27.2978 39.7654C27.2978 40.0719 27.2454 40.3414 27.1407 40.5742C27.0379 40.8069 26.8847 40.9892 26.681 41.1211C26.4793 41.251 26.2292 41.316 25.9305 41.316ZM25.9305 40.8913C26.1109 40.8913 26.2631 40.8457 26.3872 40.7545C26.5113 40.6634 26.6054 40.5325 26.6694 40.3618C26.7334 40.1911 26.7654 39.9885 26.7654 39.7538C26.7654 39.5385 26.7373 39.3456 26.681 39.1749C26.6248 39.0023 26.5346 38.8656 26.4105 38.7647C26.2883 38.6639 26.1283 38.6134 25.9305 38.6134C25.7482 38.6134 25.594 38.659 25.468 38.7502C25.3419 38.8394 25.2459 38.9693 25.18 39.14C25.116 39.3107 25.084 39.5153 25.084 39.7538C25.084 39.9652 25.113 40.1572 25.1712 40.3298C25.2294 40.5024 25.3206 40.6391 25.4447 40.74C25.5688 40.8408 25.7307 40.8913 25.9305 40.8913ZM28.7998 41.316C28.6059 41.316 28.4342 41.2821 28.2849 41.2142C28.1356 41.1444 28.0182 41.0445 27.9329 40.9145C27.8495 40.7846 27.8078 40.6275 27.8078 40.4433C27.8078 40.1097 27.9242 39.8614 28.1569 39.6985C28.3896 39.5356 28.763 39.4484 29.2769 39.4367L29.8151 39.4222V39.1865C29.8151 39.0023 29.7598 38.8568 29.6493 38.7502C29.5387 38.6416 29.3671 38.5873 29.1344 38.5873C28.9618 38.5892 28.8095 38.6299 28.6776 38.7094C28.5477 38.789 28.4633 38.9189 28.4245 39.0993H27.9504C27.962 38.9034 28.0173 38.7385 28.1162 38.6047C28.2151 38.469 28.3528 38.3662 28.5293 38.2964C28.7077 38.2265 28.9181 38.1916 29.1605 38.1916C29.4224 38.1916 29.6396 38.2285 29.8122 38.3022C29.9867 38.3759 30.1167 38.4845 30.202 38.628C30.2893 38.7715 30.3329 38.948 30.3329 39.1574V41.2578H29.8733L29.8355 40.6934C29.7191 40.9281 29.5707 41.091 29.3904 41.1822C29.2119 41.2714 29.0151 41.316 28.7998 41.316ZM28.9627 40.9291C29.0636 40.9291 29.1635 40.9107 29.2624 40.8738C29.3632 40.837 29.4553 40.7875 29.5387 40.7254C29.6221 40.6614 29.6881 40.5907 29.7365 40.5131C29.787 40.4336 29.8132 40.3521 29.8151 40.2687V39.7538L29.3671 39.7625C29.1382 39.7664 28.9462 39.7897 28.7911 39.8324C28.6379 39.875 28.5225 39.9419 28.4449 40.0331C28.3693 40.1242 28.3315 40.2435 28.3315 40.3909C28.3315 40.5596 28.3896 40.6915 28.506 40.7865C28.6243 40.8816 28.7765 40.9291 28.9627 40.9291ZM32.337 41.316C31.9472 41.316 31.6378 41.1822 31.409 40.9145C31.1802 40.6469 31.0657 40.2561 31.0657 39.7422C31.0657 39.4299 31.1113 39.1574 31.2025 38.9247C31.2955 38.692 31.4332 38.5116 31.6155 38.3836C31.7978 38.2556 32.0248 38.1916 32.2963 38.1916C32.4398 38.1916 32.5668 38.2101 32.6774 38.2469C32.7898 38.2838 32.8868 38.3303 32.9683 38.3865C33.0497 38.4428 33.1157 38.501 33.1661 38.5611C33.2185 38.6212 33.2572 38.6765 33.2825 38.7269V36.9349H33.8235V41.2578H33.4134L33.3552 40.6411C33.3358 40.6993 33.3048 40.7671 33.2621 40.8447C33.2194 40.9204 33.1593 40.995 33.0817 41.0687C33.0042 41.1405 32.9043 41.1996 32.7821 41.2462C32.6618 41.2927 32.5135 41.316 32.337 41.316ZM32.433 40.9029C32.7375 40.9029 32.9547 40.8108 33.0846 40.6265C33.2165 40.4404 33.2825 40.1368 33.2825 39.716C33.2805 39.4813 33.2505 39.2816 33.1923 39.1167C33.136 38.9519 33.0468 38.8268 32.9246 38.7414C32.8044 38.6542 32.6444 38.6105 32.4446 38.6105C32.1964 38.6105 31.9947 38.6988 31.8395 38.8753C31.6844 39.0518 31.6068 39.332 31.6068 39.716C31.6068 40.0922 31.6766 40.3841 31.8163 40.5916C31.9578 40.7991 32.1634 40.9029 32.433 40.9029ZM36.1665 37.0513H36.7163V40.7749H38.7032V41.2578H36.1636L36.1665 37.0513ZM40.5328 41.316C40.2554 41.316 40.013 41.2568 39.8055 41.1385C39.598 41.0183 39.437 40.8428 39.3226 40.612C39.2082 40.3812 39.151 40.099 39.151 39.7654C39.151 39.4513 39.2043 39.1759 39.311 38.9393C39.4176 38.7027 39.5737 38.5194 39.7793 38.3894C39.9868 38.2576 40.238 38.1916 40.5328 38.1916C40.8101 38.1916 41.0506 38.2527 41.2542 38.3749C41.4598 38.4951 41.6188 38.6726 41.7313 38.9073C41.8438 39.1419 41.9 39.428 41.9 39.7654C41.9 40.0719 41.8477 40.3414 41.743 40.5742C41.6402 40.8069 41.487 40.9892 41.2833 41.1211C41.0816 41.251 40.8314 41.316 40.5328 41.316ZM40.5328 40.8913C40.7131 40.8913 40.8654 40.8457 40.9895 40.7545C41.1136 40.6634 41.2077 40.5325 41.2717 40.3618C41.3357 40.1911 41.3677 39.9885 41.3677 39.7538C41.3677 39.5385 41.3396 39.3456 41.2833 39.1749C41.2271 39.0023 41.1369 38.8656 41.0128 38.7647C40.8906 38.6639 40.7306 38.6134 40.5328 38.6134C40.3505 38.6134 40.1963 38.659 40.0702 38.7502C39.9442 38.8394 39.8482 38.9693 39.7822 39.14C39.7182 39.3107 39.6862 39.5153 39.6862 39.7538C39.6862 39.9652 39.7153 40.1572 39.7735 40.3298C39.8317 40.5024 39.9228 40.6391 40.047 40.74C40.1711 40.8408 40.333 40.8913 40.5328 40.8913ZM43.8498 42.2527C43.3766 42.2527 43.0081 42.1839 42.7444 42.0462C42.4825 41.9104 42.3516 41.7155 42.3516 41.4614C42.3516 41.3528 42.3768 41.2607 42.4273 41.1851C42.4777 41.1075 42.5378 41.0435 42.6076 40.9931C42.6775 40.9427 42.7424 40.9029 42.8025 40.8738C42.8627 40.8428 42.9015 40.8205 42.9189 40.8069C42.8859 40.7875 42.8442 40.7633 42.7938 40.7342C42.7453 40.7051 42.7027 40.6663 42.6658 40.6178C42.629 40.5693 42.6105 40.5063 42.6105 40.4287C42.6105 40.3337 42.6551 40.2464 42.7444 40.1669C42.8336 40.0874 42.9655 40.0282 43.14 39.9894C42.9635 39.9002 42.8258 39.7819 42.7269 39.6345C42.628 39.4871 42.5785 39.3271 42.5785 39.1545C42.5785 38.9606 42.6309 38.7919 42.7356 38.6484C42.8423 38.5048 42.9936 38.3953 43.1895 38.3196C43.3853 38.2421 43.6181 38.2033 43.8876 38.2033C44.0835 38.2033 44.2484 38.2265 44.3822 38.2731C44.516 38.3177 44.6401 38.3817 44.7545 38.4651C44.7856 38.4515 44.8341 38.4311 44.9 38.404C44.9679 38.3749 45.0425 38.3439 45.124 38.3109C45.2055 38.2779 45.2811 38.2469 45.3509 38.2178C45.4227 38.1868 45.4799 38.1635 45.5225 38.148L45.5196 38.6454L44.9931 38.7444C45.0222 38.8064 45.0455 38.8743 45.0629 38.948C45.0823 39.0217 45.092 39.0905 45.092 39.1545C45.092 39.331 45.0455 39.491 44.9524 39.6345C44.8612 39.7781 44.7225 39.8925 44.5364 39.9778C44.3502 40.0631 44.1175 40.1058 43.8382 40.1058C43.8149 40.1058 43.7848 40.1058 43.748 40.1058C43.7131 40.1039 43.683 40.1019 43.6578 40.1C43.4522 40.1058 43.3107 40.1291 43.2331 40.1698C43.1555 40.2086 43.1167 40.2522 43.1167 40.3007C43.1167 40.357 43.1604 40.3958 43.2476 40.4171C43.3349 40.4384 43.4833 40.4568 43.6927 40.4724C43.7684 40.4762 43.8615 40.4811 43.972 40.4869C44.0845 40.4927 44.2086 40.5005 44.3444 40.5102C44.6605 40.5296 44.9039 40.6101 45.0745 40.7516C45.2452 40.8932 45.3305 41.0842 45.3305 41.3247C45.3305 41.5982 45.2084 41.8212 44.964 41.9938C44.7196 42.1664 44.3482 42.2527 43.8498 42.2527ZM43.9458 41.9065C44.2231 41.9065 44.4355 41.8648 44.5829 41.7814C44.7303 41.6981 44.804 41.572 44.804 41.4033C44.804 41.283 44.7584 41.1851 44.6673 41.1094C44.5781 41.0319 44.4413 40.9873 44.2571 40.9756L43.4135 40.9204C43.3378 40.9165 43.2593 40.9359 43.1778 40.9785C43.0964 41.0193 43.0265 41.0765 42.9684 41.1502C42.9121 41.2239 42.884 41.3073 42.884 41.4004C42.884 41.5594 42.9703 41.6835 43.1429 41.7727C43.3175 41.8619 43.5851 41.9065 43.9458 41.9065ZM43.8527 39.7596C44.0699 39.7596 44.2445 39.7092 44.3764 39.6084C44.5102 39.5075 44.5771 39.3582 44.5771 39.1604C44.5771 38.9567 44.5102 38.8016 44.3764 38.6949C44.2445 38.5882 44.0699 38.5349 43.8527 38.5349C43.6336 38.5349 43.4561 38.5892 43.3204 38.6978C43.1865 38.8045 43.1196 38.9587 43.1196 39.1604C43.1196 39.3504 43.1836 39.4978 43.3116 39.6025C43.4396 39.7073 43.62 39.7596 43.8527 39.7596ZM47.2998 41.316C47.0225 41.316 46.7801 41.2568 46.5725 41.1385C46.365 41.0183 46.2041 40.8428 46.0896 40.612C45.9752 40.3812 45.918 40.099 45.918 39.7654C45.918 39.4513 45.9713 39.1759 46.078 38.9393C46.1847 38.7027 46.3408 38.5194 46.5464 38.3894C46.7539 38.2576 47.005 38.1916 47.2998 38.1916C47.5772 38.1916 47.8176 38.2527 48.0213 38.3749C48.2268 38.4951 48.3859 38.6726 48.4984 38.9073C48.6108 39.1419 48.6671 39.428 48.6671 39.7654C48.6671 40.0719 48.6147 40.3414 48.51 40.5742C48.4072 40.8069 48.254 40.9892 48.0504 41.1211C47.8487 41.251 47.5985 41.316 47.2998 41.316ZM47.2998 40.8913C47.4802 40.8913 47.6324 40.8457 47.7565 40.7545C47.8807 40.6634 47.9747 40.5325 48.0387 40.3618C48.1027 40.1911 48.1347 39.9885 48.1347 39.7538C48.1347 39.5385 48.1066 39.3456 48.0504 39.1749C47.9941 39.0023 47.9039 38.8656 47.7798 38.7647C47.6576 38.6639 47.4976 38.6134 47.2998 38.6134C47.1175 38.6134 46.9633 38.659 46.8373 38.7502C46.7112 38.8394 46.6152 38.9693 46.5493 39.14C46.4853 39.3107 46.4533 39.5153 46.4533 39.7538C46.4533 39.9652 46.4824 40.1572 46.5405 40.3298C46.5987 40.5024 46.6899 40.6391 46.814 40.74C46.9381 40.8408 47.1001 40.8913 47.2998 40.8913Z" fill="#A0AEC0"/>
</svg>
