<svg width="40" height="40" viewBox="0 0 40 40" fill="none" xmlns="http://www.w3.org/2000/svg">
<rect width="40" height="40" rx="20" fill="#5A2F8D"/>
<path opacity="0.4" d="M23.5 21.15H21.33C19.55 21.15 18.1 19.71 18.1 17.92V15.75C18.1 15.34 17.77 15 17.35 15H14.18C11.87 15 10 16.5 10 19.18V25.82C10 28.5 11.87 30 14.18 30H20.07C22.38 30 24.25 28.5 24.25 25.82V21.9C24.25 21.48 23.91 21.15 23.5 21.15Z" fill="#F7FAFC"/>
<path d="M25.8217 10H23.8517H22.7617H19.9317C17.6717 10 15.8417 11.44 15.7617 14.01C15.8217 14.01 15.8717 14 15.9317 14H18.7617H19.8517H21.8217C24.1317 14 26.0017 15.5 26.0017 18.18V20.15V22.86V24.83C26.0017 24.89 25.9917 24.94 25.9917 24.99C28.2217 24.92 30.0017 23.44 30.0017 20.83V18.86V16.15V14.18C30.0017 11.5 28.1317 10 25.8217 10Z" fill="#F7FAFC"/>
<path d="M19.9806 15.15C19.6706 14.84 19.1406 15.05 19.1406 15.48V18.1C19.1406 19.2 20.0706 20.1 21.2106 20.1C21.9206 20.11 22.9106 20.11 23.7606 20.11C24.1906 20.11 24.4106 19.61 24.1106 19.31C23.0206 18.22 21.0806 16.27 19.9806 15.15Z" fill="#F7FAFC"/>
</svg>
