<svg width="440" height="388" viewBox="0 0 440 388" fill="none" xmlns="http://www.w3.org/2000/svg">
<path d="M289.5 102.69C324.5 104.51 367.15 109.27 371.76 159C375.5 199.33 335.76 228.92 304.84 238.13C269.25 248.73 240.6 222.3 204.95 218.74C168.64 215.12 149.82 262.63 114.85 256.74C80.85 251.03 61.01 198.74 60.16 166.74C59.16 127.51 82.16 95.6 106.16 71.8C131.67 46.45 165.1 27.28 203.27 45.15C238.62 61.67 248.05 100.53 289.5 102.69Z" fill="var(--primary-500)"/>
<path opacity="0.9" d="M289.5 102.69C324.5 104.51 367.15 109.27 371.76 159C375.5 199.33 335.76 228.92 304.84 238.13C269.25 248.73 240.6 222.3 204.95 218.74C168.64 215.12 149.82 262.63 114.85 256.74C80.85 251.03 61.01 198.74 60.16 166.74C59.16 127.51 82.16 95.6 106.16 71.8C131.67 46.45 165.1 27.28 203.27 45.15C238.62 61.67 248.05 100.53 289.5 102.69Z" fill="white"/>
<path d="M224 363.56C331.082 363.56 417.89 358.492 417.89 352.24C417.89 345.988 331.082 340.92 224 340.92C116.917 340.92 30.11 345.988 30.11 352.24C30.11 358.492 116.917 363.56 224 363.56Z" fill="#F5F5F5"/>
<path d="M175.78 343.02L167.74 340.38L171.71 321.06L179.75 323.7L175.78 343.02Z" fill="#FFB573"/>
<path d="M245.71 343.12H237.24L235.14 323.53H243.6L245.71 343.12Z" fill="#FFB573"/>
<path d="M236.55 342.14H246.86C247.029 342.14 247.194 342.197 247.326 342.303C247.459 342.408 247.552 342.555 247.59 342.72L249.26 350.24C249.299 350.424 249.296 350.614 249.252 350.796C249.208 350.978 249.123 351.148 249.003 351.293C248.884 351.438 248.734 351.555 248.564 351.634C248.394 351.713 248.208 351.753 248.02 351.75C244.7 351.69 242.28 351.5 238.1 351.5C235.52 351.5 227.77 351.76 224.22 351.76C220.67 351.76 220.22 348.25 221.65 347.93C228.17 346.51 233.09 344.54 235.17 342.66C235.553 342.326 236.042 342.142 236.55 342.14Z" fill="#263238"/>
<path d="M167.88 339.11L176.79 341.56C176.951 341.607 177.091 341.706 177.189 341.842C177.287 341.978 177.337 342.143 177.33 342.31L176.94 350.01C176.932 350.196 176.882 350.378 176.794 350.542C176.705 350.706 176.581 350.848 176.43 350.956C176.278 351.065 176.105 351.138 175.921 351.17C175.737 351.202 175.549 351.192 175.37 351.14C172.17 350.2 167.58 348.73 163.54 347.61C158.82 346.31 157.94 345.86 152.4 344.34C149.05 343.41 149.05 339.77 150.54 339.85C157.31 340.21 159.29 341.08 165.74 339.2C166.431 338.971 167.172 338.94 167.88 339.11V339.11Z" fill="#263238"/>
<path d="M209.56 86C209.02 86.7 208.61 87.22 208.13 87.81C207.65 88.4 207.19 88.92 206.71 89.47C205.71 90.56 204.71 91.62 203.71 92.66C201.692 94.7798 199.556 96.7831 197.31 98.66C192.669 102.675 187.354 105.838 181.61 108C180.026 108.558 178.397 108.977 176.74 109.25C176.32 109.31 175.89 109.39 175.46 109.44L174.15 109.56C173.597 109.593 173.043 109.593 172.49 109.56C171.944 109.529 171.4 109.469 170.86 109.38C169.1 109.062 167.387 108.524 165.76 107.78C164.347 107.163 162.977 106.451 161.66 105.65C159.175 104.153 156.799 102.482 154.55 100.65C152.327 98.8868 150.219 96.9829 148.24 94.95L152.07 89.89C156.77 92.22 161.58 94.68 166.18 96.45C167.33 96.88 168.46 97.27 169.52 97.57C170.415 97.8368 171.338 97.9946 172.27 98.04C172.4 98.0466 172.53 98.0466 172.66 98.04C172.73 98.04 172.72 98.04 173.03 97.96L173.73 97.84L174.45 97.67C174.92 97.57 175.45 97.37 175.9 97.24C176.35 97.11 176.9 96.89 177.38 96.66C179.471 95.7672 181.459 94.6507 183.31 93.33C185.317 91.9573 187.231 90.4541 189.04 88.83C190.91 87.21 192.7 85.44 194.46 83.64C195.34 82.74 196.2 81.81 197.03 80.87L198.27 79.46L199.41 78.12L209.56 86Z" fill="#FFB573"/>
<path d="M214.21 81.84C214.83 89.9 196.67 106.36 196.67 106.36L180.61 92.44C180.61 92.44 187.37 85.28 194.97 78.07C200.19 73.12 213.53 73.11 214.21 81.84Z" fill="white"/>
<path opacity="0.4" d="M214.21 81.84C214.83 89.9 196.67 106.36 196.67 106.36L180.61 92.44C180.61 92.44 187.37 85.28 194.97 78.07C200.19 73.12 213.53 73.11 214.21 81.84Z" fill="var(--primary-500)"/>
<path opacity="0.2" d="M206 86C198.54 86.68 193.77 92.68 191.68 99.31C191.45 100.05 191.25 100.81 191.09 101.56L196.65 106.38C196.65 106.38 204.92 98.89 210.1 91.54C210.38 88.05 209.39 85.68 206 86Z" fill="black"/>
<path d="M154 93.54L151.25 86.54L141.87 89.42C143.911 91.5875 146.162 93.5471 148.59 95.2701L154 93.54Z" fill="#FFB573"/>
<path d="M146.55 81.11L138.81 84.21L141.9 89.44L151.28 86.56L146.55 81.11Z" fill="#FFB573"/>
<path opacity="0.2" d="M171.71 321.07L169.32 332.67L177.48 334.75L179.75 323.71L171.71 321.07Z" fill="black"/>
<path opacity="0.2" d="M243.6 323.53H235.14L236.23 333.63H244.69L243.6 323.53Z" fill="black"/>
<path d="M248.6 77.9299C246.117 87.0631 244.318 96.369 243.22 105.77C242.42 112.32 241.94 118.58 241.64 124.26C240.94 137.56 241.23 147.7 240.83 151.13L195.68 148C189.54 99.8599 201.28 75.0599 201.28 75.0599C204.85 74.3967 208.456 73.9525 212.08 73.7299C212.847 73.6766 213.627 73.6466 214.42 73.6399C220.837 73.7261 227.245 74.1802 233.61 74.9999C234.82 75.1499 236.04 75.3199 237.23 75.5099C243.28 76.4599 248.6 77.9299 248.6 77.9299Z" fill="white"/>
<path opacity="0.4" d="M248.6 77.9299C246.117 87.0631 244.318 96.369 243.22 105.77C242.42 112.32 241.94 118.58 241.64 124.26C240.94 137.56 241.23 147.7 240.83 151.13L195.68 148C189.54 99.8599 201.28 75.0599 201.28 75.0599C204.85 74.3967 208.456 73.9525 212.08 73.7299C212.847 73.6766 213.627 73.6466 214.42 73.6399C220.837 73.7261 227.245 74.1802 233.61 74.9999C234.82 75.1499 236.04 75.3199 237.23 75.5099C243.28 76.4599 248.6 77.9299 248.6 77.9299Z" fill="var(--primary-500)"/>
<path opacity="0.2" d="M237.19 90.11C237.115 97.0344 239.058 103.831 242.78 109.67C242.91 108.39 243.06 107.08 243.22 105.77C243.82 100.84 244.6 95.77 245.63 90.59L237.19 90.11Z" fill="black"/>
<path d="M233.22 53.22C231.57 59.31 229.58 70.54 233.61 74.96C231.57 76.8106 229.156 78.2021 226.532 79.0405C223.909 79.8788 221.135 80.1447 218.4 79.82C213.1 79.33 213.09 75.6 214.4 73.62C221.4 72.46 221.58 67.34 220.71 62.46L233.22 53.22Z" fill="#FFB573"/>
<path opacity="0.2" d="M228.13 57L220.74 62.46C220.959 63.5973 221.076 64.7519 221.09 65.91C223.75 65.71 227.56 63.08 228.04 60.34C228.27 59.2411 228.301 58.1097 228.13 57V57Z" fill="black"/>
<path d="M219.8 44.1099C217.8 46.9399 212.55 41.7299 212.75 37.1099C220.35 36.1099 216.75 30.5399 223.65 31.9699C229.39 33.0999 222 40.9999 219.8 44.1099Z" fill="#263238"/>
<path d="M238.74 45.94C236.2 53.94 235.12 58.76 229.96 61.94C222.2 66.66 213.11 60.41 213.21 51.81C213.3 44.07 217.45 32.28 226.21 31.05C228.138 30.7697 230.106 30.9861 231.928 31.6789C233.749 32.3716 235.363 33.5177 236.618 35.0086C237.873 36.4996 238.726 38.2861 239.097 40.199C239.469 42.1119 239.346 44.0879 238.74 45.94Z" fill="#FFB573"/>
<path d="M233.94 53.22C233.551 51.2452 233.439 49.2256 233.61 47.22C233.897 45.6515 234.392 44.1282 235.08 42.69C235.08 42.69 230.29 39.86 230.18 36.45C230.18 36.45 221.62 38.97 217.05 35.12C212.48 31.27 216.56 26.82 214.22 25.12C219.82 24.58 221.52 27.98 225.06 27.24C228.6 26.5 225.47 24.01 225.94 21.24C236.61 30.43 241.25 26.12 246.43 31.38C249.74 34.74 246.26 41.04 246.26 41.04C246.26 41.04 251.54 50 233.94 53.22Z" fill="#263238"/>
<path d="M244.56 40.8499C244.56 40.8499 249.8 41.9299 249.94 36.4399C252.64 41.9999 249.26 42.8699 244.56 40.8499Z" fill="#263238"/>
<path d="M220.92 53.5701C221.872 53.8335 222.873 53.8638 223.839 53.6584C224.805 53.453 225.708 53.0179 226.47 52.3901C226.511 52.3488 226.534 52.2931 226.534 52.2351C226.534 52.177 226.511 52.1213 226.47 52.0801C226.429 52.0421 226.376 52.021 226.32 52.021C226.264 52.021 226.211 52.0421 226.17 52.0801C225.457 52.6519 224.619 53.0477 223.724 53.2353C222.829 53.423 221.903 53.3972 221.02 53.1601C220.963 53.1499 220.905 53.1604 220.855 53.1898C220.806 53.2192 220.768 53.2654 220.75 53.3201C220.743 53.3752 220.757 53.431 220.788 53.4769C220.819 53.5229 220.866 53.556 220.92 53.5701Z" fill="#263238"/>
<path d="M240.16 54.7799C239.405 55.5024 238.514 56.0687 237.539 56.4462C236.565 56.8238 235.525 57.0051 234.48 56.9799C231.68 56.8999 231.11 54.1999 232.58 51.9799C233.91 49.9799 236.96 47.6499 239.44 48.8099C241.92 49.9699 242 52.9999 240.16 54.7799Z" fill="#FFB573"/>
<path d="M167.08 328.5L180.89 332.3C180.89 332.3 198.19 277.77 202.44 247.82C203.57 239.87 205.31 228.71 207.96 216.82C211.32 201.82 215.52 185.61 218.96 172.91C222.6 159.53 225.36 150.07 225.36 150.07L195.68 148C195.68 148 183.53 214.49 180.68 240.16C177.74 266.84 167.08 328.5 167.08 328.5Z" fill="var(--primary-500)"/>
<path opacity="0.3" d="M167.08 328.5L180.89 332.3C180.89 332.3 198.19 277.77 202.44 247.82C203.57 239.87 205.31 228.71 207.96 216.82C211.32 201.82 215.52 185.61 218.96 172.91C222.6 159.53 225.36 150.07 225.36 150.07L195.68 148C195.68 148 183.53 214.49 180.68 240.16C177.74 266.84 167.08 328.5 167.08 328.5Z" fill="black"/>
<path opacity="0.2" d="M208 216.81C211.36 201.81 215.56 185.6 219 172.9L215.92 166.26C208.52 175 206.54 202.09 208 216.81Z" fill="black"/>
<path d="M211.69 149.11C211.69 149.11 214.9 221.55 218.47 246.11C222.38 272.98 232.32 331.7 232.32 331.7H247.81C247.81 331.7 242.69 269.91 240.42 243.53C237.84 213.53 240.83 151.16 240.83 151.16L211.69 149.11Z" fill="var(--primary-500)"/>
<path opacity="0.3" d="M211.69 149.11C211.69 149.11 214.9 221.55 218.47 246.11C222.38 272.98 232.32 331.7 232.32 331.7H247.81C247.81 331.7 242.69 269.91 240.42 243.53C237.84 213.53 240.83 151.16 240.83 151.16L211.69 149.11Z" fill="black"/>
<path d="M230.46 332.01H248.71V326.56L228.31 326.21L230.46 332.01Z" fill="var(--primary-500)"/>
<path d="M166.12 328.58L181.72 332.88L183.96 327.51L166.19 322.58L166.12 328.58Z" fill="var(--primary-500)"/>
<path d="M225.84 45.1099C225.68 45.7699 225.19 46.2199 224.76 46.1099C224.33 45.9999 224.11 45.3799 224.28 44.7199C224.45 44.0599 224.93 43.6099 225.36 43.7199C225.79 43.8299 226 44.4499 225.84 45.1099Z" fill="#263238"/>
<path d="M218.36 43.2301C218.19 43.8901 217.71 44.3401 217.28 44.2301C216.85 44.1201 216.63 43.5001 216.79 42.8301C216.95 42.1601 217.45 41.7201 217.88 41.8301C218.31 41.9401 218.53 42.5701 218.36 43.2301Z" fill="#263238"/>
<path d="M220.66 44.1599C219.36 45.983 217.816 47.6183 216.07 49.0199C216.97 50.4099 219.21 50.2699 219.21 50.2699L220.66 44.1599Z" fill="#ED893E"/>
<path d="M228.77 43.2799C228.696 43.2741 228.624 43.2476 228.564 43.2034C228.504 43.1592 228.458 43.0991 228.43 43.0299C228.246 42.5629 227.954 42.1457 227.579 41.8122C227.204 41.4786 226.755 41.2381 226.27 41.1099C226.164 41.0904 226.071 41.0302 226.009 40.9423C225.947 40.8545 225.923 40.7459 225.94 40.6399C225.95 40.5879 225.969 40.5383 225.998 40.494C226.027 40.4497 226.065 40.4116 226.108 40.3819C226.152 40.3521 226.201 40.3313 226.253 40.3207C226.305 40.31 226.358 40.3098 226.41 40.3199C227.028 40.4717 227.6 40.7686 228.08 41.186C228.56 41.6034 228.934 42.1292 229.17 42.7199C229.211 42.8182 229.211 42.9285 229.172 43.0274C229.133 43.1263 229.057 43.2061 228.96 43.2499C228.899 43.2696 228.835 43.2797 228.77 43.2799V43.2799Z" fill="#263238"/>
<path d="M215.8 39.85C215.715 39.8403 215.635 39.8054 215.57 39.75C215.497 39.6752 215.456 39.5747 215.456 39.47C215.456 39.3653 215.497 39.2648 215.57 39.19C215.969 38.6925 216.482 38.2978 217.064 38.0386C217.647 37.7794 218.283 37.6633 218.92 37.7C219.025 37.7149 219.121 37.7702 219.186 37.8542C219.251 37.9382 219.281 38.0442 219.27 38.15C219.253 38.2542 219.197 38.3482 219.114 38.413C219.03 38.4779 218.925 38.509 218.82 38.5V38.5C218.318 38.4764 217.817 38.5729 217.36 38.7816C216.902 38.9903 216.501 39.3052 216.19 39.7C216.142 39.7547 216.081 39.7969 216.014 39.823C215.946 39.8491 215.872 39.8584 215.8 39.85Z" fill="#263238"/>
<path d="M233.75 343.62C233.174 343.663 232.6 343.512 232.12 343.19C231.969 343.061 231.853 342.897 231.782 342.712C231.71 342.527 231.685 342.327 231.71 342.13C231.709 342.013 231.74 341.898 231.8 341.797C231.86 341.697 231.947 341.615 232.05 341.56C232.99 341.08 235.72 342.76 236.05 342.95C236.085 342.972 236.112 343.003 236.128 343.041C236.144 343.078 236.148 343.12 236.14 343.16C236.135 343.199 236.117 343.235 236.09 343.264C236.064 343.292 236.029 343.312 235.99 343.32C235.257 343.504 234.506 343.605 233.75 343.62ZM232.49 341.87C232.401 341.869 232.313 341.886 232.23 341.92C232.18 341.92 232.12 342 232.11 342.16C232.092 342.293 232.107 342.428 232.154 342.554C232.201 342.68 232.279 342.792 232.38 342.88C232.84 343.27 233.95 343.33 235.38 343.04C234.504 342.463 233.521 342.065 232.49 341.87V341.87Z" fill="var(--primary-500)"/>
<path d="M235.92 343.32C235.888 343.331 235.852 343.331 235.82 343.32C234.95 342.84 233.25 340.99 233.43 340.05C233.46 339.902 233.54 339.768 233.656 339.672C233.773 339.575 233.919 339.522 234.07 339.52C234.222 339.5 234.377 339.513 234.523 339.558C234.67 339.602 234.805 339.678 234.92 339.78C235.92 340.58 236.11 343.02 236.12 343.13C236.121 343.165 236.114 343.2 236.098 343.231C236.082 343.263 236.059 343.29 236.03 343.31C235.995 343.322 235.957 343.326 235.92 343.32V343.32ZM234.21 339.89H234.12C233.86 339.89 233.84 340.04 233.83 340.09C233.72 340.65 234.83 342.09 235.67 342.71C235.609 341.747 235.261 340.824 234.67 340.06C234.542 339.95 234.379 339.889 234.21 339.89V339.89Z" fill="var(--primary-500)"/>
<path d="M166.77 340C165.38 339.89 162.95 339.57 162.28 338.53C162.187 338.383 162.129 338.215 162.112 338.042C162.094 337.868 162.118 337.693 162.18 337.53C162.214 337.426 162.274 337.333 162.355 337.259C162.435 337.186 162.534 337.134 162.64 337.11C163.77 336.84 166.64 339.39 166.92 339.69C166.948 339.718 166.968 339.754 166.977 339.793C166.986 339.832 166.984 339.872 166.97 339.91C166.95 339.944 166.92 339.971 166.884 339.987C166.849 340.003 166.809 340.007 166.77 340V340ZM162.77 337.46H162.71C162.667 337.469 162.628 337.49 162.596 337.52C162.565 337.55 162.542 337.588 162.53 337.63C162.485 337.74 162.467 337.859 162.477 337.977C162.487 338.096 162.526 338.21 162.59 338.31C162.97 338.9 164.29 339.31 166.18 339.54C165 338.58 163.42 337.4 162.76 337.47L162.77 337.46Z" fill="var(--primary-500)"/>
<path d="M165.05 335.55C164.62 336.71 165.86 338.84 166.62 340C166.638 340.041 166.67 340.075 166.71 340.095C166.75 340.116 166.796 340.121 166.84 340.11C166.879 340.1 166.915 340.079 166.942 340.048C166.968 340.018 166.985 339.98 166.99 339.94C167.03 339.48 167.33 335.68 166.43 334.94C166.345 334.871 166.243 334.824 166.134 334.805C166.026 334.786 165.914 334.794 165.81 334.83C165.634 334.879 165.473 334.97 165.341 335.096C165.208 335.221 165.109 335.377 165.05 335.55Z" fill="var(--primary-500)"/>
<path d="M249.85 82.8C251.8 85.55 253.46 88.21 255.16 90.98C256.86 93.75 258.41 96.55 259.93 99.42C263.077 105.273 265.636 111.423 267.57 117.78C267.8 118.62 268.02 119.46 268.22 120.33C268.32 120.76 268.41 121.2 268.5 121.65L268.63 122.31L268.69 122.65L268.77 123.19C269.025 125.465 268.817 127.767 268.16 129.96C267.17 133.348 265.769 136.602 263.99 139.65C262.383 142.505 260.61 145.263 258.68 147.91C256.796 150.542 254.77 153.069 252.61 155.48L247.41 151.83C250.12 146.4 252.88 140.83 255 135.37C255.53 134.01 256 132.65 256.41 131.32C256.817 130.08 257.125 128.809 257.33 127.52C257.501 126.689 257.501 125.831 257.33 125C257.33 125 257.33 125 257.33 125L257.26 124.77L257.13 124.3C257.05 123.98 256.96 123.66 256.85 123.3C256.66 122.66 256.44 122 256.21 121.35C254.13 115.874 251.609 110.577 248.67 105.51C247.21 102.88 245.67 100.3 244.09 97.7C242.51 95.1 240.85 92.52 239.28 90.11L249.85 82.8Z" fill="#FFB573"/>
<path d="M248.6 77.93C256.53 79.53 263.48 98.93 263.48 98.93L246.93 112.41C246.93 112.41 241.51 102.55 237.17 93.04C232.44 82.68 239 76 248.6 77.93Z" fill="white"/>
<path opacity="0.4" d="M248.6 77.93C256.53 79.53 263.48 98.93 263.48 98.93L246.93 112.41C246.93 112.41 241.51 102.55 237.17 93.04C232.44 82.68 239 76 248.6 77.93Z" fill="var(--primary-500)"/>
<path d="M137.9 105.408L133.902 119.824L134.856 120.089L138.854 105.673L137.9 105.408Z" fill="var(--primary-500)"/>
<path d="M132.431 125.136L130.702 131.371L131.656 131.635L133.385 125.401L132.431 125.136Z" fill="var(--primary-500)"/>
<path d="M243.746 98.9487L160.937 75.6585C154.643 73.8885 148.107 77.5554 146.337 83.8488L123.046 166.658C121.276 172.952 124.943 179.488 131.237 181.259L214.046 204.549C220.34 206.319 226.876 202.652 228.646 196.358L251.937 113.549C253.707 107.255 250.04 100.719 243.746 98.9487Z" fill="var(--primary-500)"/>
<path d="M195.55 121.21C195.104 121.214 194.659 121.153 194.23 121.03C192.975 120.668 191.911 119.829 191.266 118.693C190.621 117.557 190.447 116.213 190.78 114.95L194.78 100.54C195.148 99.2951 195.99 98.2443 197.125 97.6142C198.259 96.984 199.597 96.8249 200.848 97.1711C202.099 97.5174 203.164 98.3412 203.813 99.4651C204.463 100.589 204.645 101.923 204.32 103.18L200.32 117.59C200.022 118.627 199.397 119.541 198.537 120.193C197.677 120.846 196.629 121.202 195.55 121.21V121.21Z" fill="white"/>
<path d="M178.32 181.48C178.049 181.483 177.78 181.446 177.52 181.37C176.766 181.153 176.128 180.649 175.741 179.967C175.354 179.285 175.25 178.478 175.45 177.72L179.45 163.32C179.502 162.892 179.646 162.48 179.872 162.112C180.098 161.745 180.4 161.43 180.759 161.19C181.117 160.95 181.523 160.79 181.949 160.721C182.375 160.652 182.811 160.676 183.227 160.791C183.643 160.906 184.029 161.109 184.359 161.387C184.689 161.665 184.956 162.01 185.14 162.4C185.324 162.79 185.423 163.215 185.428 163.647C185.433 164.078 185.345 164.506 185.17 164.9L181.17 179.3C180.993 179.922 180.621 180.47 180.107 180.863C179.593 181.256 178.967 181.472 178.32 181.48V181.48Z" fill="white"/>
<path d="M210.53 129.44C210.202 129.443 209.881 129.337 209.62 129.138C209.358 128.94 209.17 128.659 209.086 128.342C209.001 128.025 209.024 127.688 209.152 127.385C209.279 127.083 209.504 126.831 209.79 126.67L222.79 119.3C223.131 119.115 223.53 119.07 223.904 119.174C224.277 119.279 224.595 119.525 224.79 119.86C224.981 120.2 225.029 120.601 224.924 120.976C224.819 121.351 224.569 121.669 224.23 121.86L211.23 129.23C211.017 129.355 210.777 129.428 210.53 129.44V129.44Z" fill="white"/>
<path d="M154.33 163.25C153.562 163.255 152.815 163.004 152.206 162.538C151.596 162.071 151.159 161.415 150.963 160.673C150.767 159.931 150.824 159.144 151.124 158.438C151.424 157.731 151.95 157.145 152.62 156.77L165.62 149.4C166.407 149.049 167.295 149.004 168.114 149.272C168.932 149.54 169.621 150.103 170.048 150.851C170.474 151.599 170.607 152.479 170.421 153.32C170.235 154.16 169.743 154.902 169.04 155.4L156.04 162.77C155.52 163.074 154.932 163.239 154.33 163.25V163.25Z" fill="white"/>
<path d="M227.25 152.78C227.071 152.78 226.893 152.757 226.72 152.71L212.32 148.71C211.877 148.519 211.518 148.174 211.309 147.739C211.1 147.304 211.055 146.808 211.183 146.343C211.311 145.878 211.603 145.474 212.005 145.207C212.407 144.94 212.891 144.828 213.37 144.89L227.78 148.89C228.219 149.04 228.593 149.337 228.837 149.732C229.081 150.126 229.18 150.594 229.117 151.053C229.055 151.513 228.834 151.937 228.493 152.252C228.153 152.567 227.713 152.753 227.25 152.78Z" fill="white"/>
<path d="M165 137.52C164.642 137.522 164.285 137.475 163.94 137.38L149.54 133.38C148.66 132.993 147.95 132.302 147.538 131.434C147.125 130.566 147.04 129.579 147.296 128.653C147.552 127.726 148.133 126.923 148.932 126.39C149.732 125.857 150.697 125.63 151.65 125.75L166.05 129.75C166.922 130.053 167.662 130.648 168.146 131.434C168.629 132.22 168.825 133.15 168.702 134.064C168.578 134.979 168.142 135.823 167.467 136.453C166.793 137.082 165.921 137.459 165 137.52V137.52Z" fill="white"/>
<path d="M208.52 177.26C208.083 177.259 207.655 177.143 207.277 176.924C206.9 176.705 206.587 176.389 206.37 176.01L199 163C198.833 162.717 198.724 162.404 198.68 162.079C198.635 161.754 198.656 161.423 198.741 161.106C198.826 160.789 198.973 160.492 199.174 160.232C199.375 159.972 199.626 159.756 199.912 159.594C200.198 159.433 200.513 159.33 200.839 159.291C201.165 159.253 201.495 159.28 201.811 159.371C202.126 159.462 202.42 159.615 202.676 159.821C202.932 160.026 203.144 160.281 203.3 160.57L210.66 173.57C210.822 173.852 210.926 174.163 210.967 174.486C211.008 174.808 210.984 175.136 210.898 175.449C210.811 175.762 210.664 176.055 210.463 176.311C210.263 176.567 210.014 176.781 209.73 176.94C209.362 177.151 208.944 177.261 208.52 177.26V177.26Z" fill="white"/>
<path d="M176.7 123C175.911 123.001 175.136 122.792 174.454 122.395C173.772 121.998 173.208 121.427 172.82 120.74L165.46 107.74C165.172 107.231 164.987 106.67 164.915 106.09C164.843 105.509 164.887 104.921 165.043 104.357C165.199 103.793 165.464 103.266 165.824 102.805C166.184 102.344 166.631 101.958 167.14 101.67C167.649 101.382 168.21 101.196 168.79 101.125C169.371 101.053 169.959 101.097 170.523 101.253C171.087 101.409 171.614 101.674 172.075 102.034C172.536 102.394 172.922 102.841 173.21 103.35L180.57 116.35C180.859 116.858 181.044 117.418 181.116 117.998C181.187 118.577 181.144 119.166 180.988 119.729C180.832 120.292 180.566 120.818 180.206 121.278C179.846 121.738 179.399 122.123 178.89 122.41C178.225 122.796 177.469 123 176.7 123Z" fill="white"/>
<path d="M250.41 149.89L241.83 149.58L245.98 159.58C245.98 159.58 253.35 158.22 253.07 154.24L250.41 149.89Z" fill="#FFB573"/>
<path d="M236.08 153.7L238.15 161.33L245.99 159.56L241.83 149.58L236.08 153.7Z" fill="#FFB573"/>
</svg>
