<svg width="1920" height="1000" viewBox="0 0 1920 1000" fill="none" xmlns="http://www.w3.org/2000/svg">
<rect width="1920" height="1000" fill="#F7FAFC"/>
<path d="M160 0H1920V839C1920 839 1587.74 577.937 1358.92 498.893C1013.78 379.665 711.844 721.436 429.398 480.028C269.115 343.032 160 0 160 0Z" fill="#CCBFDC"/>
<path d="M160 0H1920V808C1920 808 1587.74 556.583 1358.92 480.46C1013.78 365.637 711.844 694.78 429.398 462.291C269.115 330.358 160 0 160 0Z" fill="#5A2F8D"/>
<path d="M160 0H1920V839C1920 839 1587.74 577.937 1358.92 498.893C1013.78 379.665 711.844 721.436 429.398 480.028C269.115 343.032 160 0 160 0Z" fill="#CCBFDC"/>
<path d="M160 0H1920V808C1920 808 1587.74 556.583 1358.92 480.46C1013.78 365.637 711.844 694.78 429.398 462.291C269.115 330.358 160 0 160 0Z" fill="#7446AB"/>
</svg>
