<svg width="24" height="24" viewBox="0 0 24 24" fill="none" xmlns="http://www.w3.org/2000/svg">
<g id="vuesax/bulk/percentage-square">
<g id="percentage-square">
<path id="Vector" opacity="0.4" d="M16.1917 2H7.82172C4.18172 2 2.01172 4.17 2.01172 7.81V16.18C2.01172 19.82 4.18172 21.99 7.82172 21.99H16.1917C19.8317 21.99 22.0017 19.82 22.0017 16.18V7.81C22.0017 4.17 19.8317 2 16.1917 2Z" fill="#718096"/>
<g id="Group">
<path id="Vector_2" d="M8.82172 16.02C8.63172 16.02 8.44172 15.95 8.29172 15.8C8.00172 15.51 8.00172 15.03 8.29172 14.74L14.8417 8.19003C15.1317 7.90003 15.6117 7.90003 15.9017 8.19003C16.1917 8.48003 16.1917 8.96003 15.9017 9.25003L9.35172 15.8C9.20172 15.95 9.01172 16.02 8.82172 16.02Z" fill="#718096"/>
</g>
<path id="Vector_3" d="M9.23001 7.66003C8.42001 7.66003 7.75 8.32005 7.75 9.14005C7.75 9.95005 8.41001 10.62 9.23001 10.62C10.04 10.62 10.71 9.96005 10.71 9.14005C10.7 8.32005 10.04 7.66003 9.23001 7.66003Z" fill="#718096"/>
<path id="Vector_4" d="M15.769 13.39C14.959 13.39 14.2891 14.05 14.2891 14.87C14.2891 15.68 14.949 16.35 15.769 16.35C16.579 16.35 17.2491 15.69 17.2491 14.87C17.2491 14.05 16.589 13.39 15.769 13.39Z" fill="#718096"/>
</g>
</g>
</svg>
