<svg width="156" height="141" viewBox="0 0 156 141" fill="none" xmlns="http://www.w3.org/2000/svg">
<path d="M77.4724 15.0028C56.856 21.9617 11.3685 -6.15045 4.45766 27.9271C-1.22327 55.895 27.3657 83.9591 64.5521 93.5061C90.9496 100.285 126.766 88.6425 132.875 55.7628C136.697 35.1985 121.257 11.7176 109.066 7.03826C93.8301 1.19709 90.9175 10.4717 77.4724 15.0028Z" fill="var(--primary-500)"/>
<path opacity="0.9" d="M77.4724 15.0028C56.856 21.9617 11.3685 -6.15045 4.45766 27.9271C-1.22327 55.895 27.3657 83.9591 64.5521 93.5061C90.9496 100.285 126.766 88.6425 132.875 55.7628C136.697 35.1985 121.257 11.7176 109.066 7.03826C93.8301 1.19709 90.9175 10.4717 77.4724 15.0028Z" fill="white"/>
<path d="M78.0215 140.5C120.922 140.5 155.7 138.47 155.7 135.965C155.7 133.46 120.922 131.43 78.0215 131.43C35.1211 131.43 0.343493 133.46 0.343493 135.965C0.343493 138.47 35.1211 140.5 78.0215 140.5Z" fill="#F5F5F5"/>
<path d="M52.6017 20.5996C52.6032 19.8534 52.5429 19.1083 52.4214 18.3721C51.8844 15.1179 50.2176 12.1572 47.7139 10.0103C45.2102 7.86346 42.0298 6.66783 38.7319 6.63362H38.6117C36.3991 6.63496 34.2186 7.16242 32.2501 8.17247C30.2815 9.18252 28.5814 10.6462 27.2899 12.4427C27.0776 12.7352 26.8893 13.0357 26.697 13.3362C26.6813 13.356 26.6679 13.3775 26.6569 13.4003C25.3418 15.5754 24.6489 18.0698 24.6538 20.6116V20.6396C24.662 23.5938 25.6063 26.4694 27.351 28.8534C29.0957 31.2373 31.551 33.007 34.3644 33.9083C37.1777 34.8096 40.2044 34.7961 43.0096 33.8697C45.8148 32.9434 48.2542 31.1518 49.9775 28.7524C50.1859 28.4599 50.3782 28.1634 50.5665 27.859C50.5821 27.8391 50.5956 27.8176 50.6065 27.7949C51.9201 25.6253 52.6104 23.1358 52.6017 20.5996ZM25.2507 20.2831C25.297 17.9956 25.9361 15.7593 27.1056 13.7929H31.4765C30.8085 15.8923 30.4588 18.08 30.4388 20.2831H25.2507ZM32.0894 13.7929H38.3232V20.2831H31.0398C31.053 18.0785 31.4071 15.8892 32.0894 13.7929ZM38.9242 13.1919V7.21454C39.7907 7.29308 40.6205 7.6015 41.328 8.10794C42.8143 9.12554 44.0603 10.9123 44.9336 13.1919H38.9242ZM45.15 13.7929C45.6456 15.2937 45.9682 16.8461 46.1115 18.4201C46.1716 19.0451 46.1996 19.6661 46.2076 20.2831H38.9242V13.7929H45.15ZM37.4419 7.3828C37.7295 7.30108 38.0249 7.25005 38.3232 7.23056V13.2039H32.3138C33.4356 10.1832 35.2544 7.98775 37.4419 7.37078V7.3828ZM38.3232 20.896V27.3862H32.1015C31.6057 25.8818 31.2858 24.325 31.148 22.7469C31.0919 22.122 31.0598 21.501 31.0518 20.884L38.3232 20.896ZM38.3232 27.9872V33.9646C37.4569 33.8854 36.6272 33.5771 35.9195 33.0712C34.4371 32.0536 33.1912 30.2668 32.3138 27.9872H38.3232ZM39.8056 33.8083C39.518 33.8904 39.2226 33.9414 38.9242 33.9606V27.9752H44.9336C43.8119 30.9839 41.993 33.1833 39.8056 33.7963V33.8083ZM38.9242 27.3982V20.888H46.2076C46.1963 23.0927 45.8422 25.2823 45.158 27.3782L38.9242 27.3982ZM46.8086 20.888H52.0167C51.9683 23.1751 51.3293 25.4109 50.1618 27.3782H45.7709C46.4389 25.2787 46.7886 23.0911 46.8086 20.888ZM52.0167 20.2871H46.8086C46.8086 19.6541 46.7685 19.0131 46.7084 18.3681C46.5717 16.8152 46.264 15.2822 45.791 13.7969H50.1538C50.9969 15.2284 51.5662 16.8043 51.8325 18.4442C51.9279 19.0529 51.9841 19.6671 52.0007 20.2831L52.0167 20.2871ZM46.46 9.7385C47.7695 10.6817 48.8985 11.8529 49.7933 13.1959H45.5706C44.6732 10.716 43.3231 8.75295 41.6685 7.61517L41.5403 7.53103C43.307 7.92664 44.9751 8.67622 46.444 9.7345L46.46 9.7385ZM35.6951 7.53904C34.0085 8.64879 32.6223 10.668 31.6888 13.1959H27.4822L27.7747 12.7673C29.6772 10.1114 32.491 8.24883 35.6791 7.53504L35.6951 7.53904ZM25.2787 20.888H30.4669C30.4669 21.521 30.507 22.162 30.567 22.807C30.7057 24.3596 31.0134 25.8924 31.4845 27.3782H27.0976C26.2528 25.9475 25.6834 24.3712 25.419 22.7309C25.3192 22.1214 25.263 21.5055 25.2507 20.888H25.2787ZM27.4982 27.9792H31.6888C32.5862 30.4591 33.9363 32.4221 35.5909 33.5599L35.7231 33.6441C32.3569 32.8795 29.4126 30.8517 27.4982 27.9792ZM41.5643 33.632C43.247 32.5263 44.6332 30.5031 45.5706 27.9752H49.7692C49.6731 28.1194 49.5769 28.2636 49.4768 28.4038C47.5726 31.061 44.7554 32.9225 41.5643 33.632Z" fill="var(--primary-500)"/>
<path opacity="0.8" d="M52.6017 20.5996C52.6032 19.8534 52.5429 19.1083 52.4214 18.3721C51.8844 15.1179 50.2176 12.1572 47.7139 10.0103C45.2102 7.86346 42.0298 6.66783 38.7319 6.63362H38.6117C36.3991 6.63496 34.2186 7.16242 32.2501 8.17247C30.2815 9.18252 28.5814 10.6462 27.2899 12.4427C27.0776 12.7352 26.8893 13.0357 26.697 13.3362C26.6813 13.356 26.6679 13.3775 26.6569 13.4003C25.3418 15.5754 24.6489 18.0698 24.6538 20.6116V20.6396C24.662 23.5938 25.6063 26.4694 27.351 28.8534C29.0957 31.2373 31.551 33.007 34.3644 33.9083C37.1777 34.8096 40.2044 34.7961 43.0096 33.8697C45.8148 32.9434 48.2542 31.1518 49.9775 28.7524C50.1859 28.4599 50.3782 28.1634 50.5665 27.859C50.5821 27.8391 50.5956 27.8176 50.6065 27.7949C51.9201 25.6253 52.6104 23.1358 52.6017 20.5996ZM25.2507 20.2831C25.297 17.9956 25.9361 15.7593 27.1056 13.7929H31.4765C30.8085 15.8923 30.4588 18.08 30.4388 20.2831H25.2507ZM32.0894 13.7929H38.3232V20.2831H31.0398C31.053 18.0785 31.4071 15.8892 32.0894 13.7929ZM38.9242 13.1919V7.21454C39.7907 7.29308 40.6205 7.6015 41.328 8.10794C42.8143 9.12554 44.0603 10.9123 44.9336 13.1919H38.9242ZM45.15 13.7929C45.6456 15.2937 45.9682 16.8461 46.1115 18.4201C46.1716 19.0451 46.1996 19.6661 46.2076 20.2831H38.9242V13.7929H45.15ZM37.4419 7.3828C37.7295 7.30108 38.0249 7.25005 38.3232 7.23056V13.2039H32.3138C33.4356 10.1832 35.2544 7.98775 37.4419 7.37078V7.3828ZM38.3232 20.896V27.3862H32.1015C31.6057 25.8818 31.2858 24.325 31.148 22.7469C31.0919 22.122 31.0598 21.501 31.0518 20.884L38.3232 20.896ZM38.3232 27.9872V33.9646C37.4569 33.8854 36.6272 33.5771 35.9195 33.0712C34.4371 32.0536 33.1912 30.2668 32.3138 27.9872H38.3232ZM39.8056 33.8083C39.518 33.8904 39.2226 33.9414 38.9242 33.9606V27.9752H44.9336C43.8119 30.9839 41.993 33.1833 39.8056 33.7963V33.8083ZM38.9242 27.3982V20.888H46.2076C46.1963 23.0927 45.8422 25.2823 45.158 27.3782L38.9242 27.3982ZM46.8086 20.888H52.0167C51.9683 23.1751 51.3293 25.4109 50.1618 27.3782H45.7709C46.4389 25.2787 46.7886 23.0911 46.8086 20.888ZM52.0167 20.2871H46.8086C46.8086 19.6541 46.7685 19.0131 46.7084 18.3681C46.5717 16.8152 46.264 15.2822 45.791 13.7969H50.1538C50.9969 15.2284 51.5662 16.8043 51.8325 18.4442C51.9279 19.0529 51.9841 19.6671 52.0007 20.2831L52.0167 20.2871ZM46.46 9.7385C47.7695 10.6817 48.8985 11.8529 49.7933 13.1959H45.5706C44.6732 10.716 43.3231 8.75295 41.6685 7.61517L41.5403 7.53103C43.307 7.92664 44.9751 8.67622 46.444 9.7345L46.46 9.7385ZM35.6951 7.53904C34.0085 8.64879 32.6223 10.668 31.6888 13.1959H27.4822L27.7747 12.7673C29.6772 10.1114 32.491 8.24883 35.6791 7.53504L35.6951 7.53904ZM25.2787 20.888H30.4669C30.4669 21.521 30.507 22.162 30.567 22.807C30.7057 24.3596 31.0134 25.8924 31.4845 27.3782H27.0976C26.2528 25.9475 25.6834 24.3712 25.419 22.7309C25.3192 22.1214 25.263 21.5055 25.2507 20.888H25.2787ZM27.4982 27.9792H31.6888C32.5862 30.4591 33.9363 32.4221 35.5909 33.5599L35.7231 33.6441C32.3569 32.8795 29.4126 30.8517 27.4982 27.9792ZM41.5643 33.632C43.247 32.5263 44.6332 30.5031 45.5706 27.9752H49.7692C49.6731 28.1194 49.5769 28.2636 49.4768 28.4038C47.5726 31.061 44.7554 32.9225 41.5643 33.632Z" fill="#FAFAFA"/>
<path d="M143.841 27.258H17.8833V57.778H143.841V27.258Z" fill="var(--primary-500)"/>
<path opacity="0.6" d="M143.841 27.258H17.8833V57.778H143.841V27.258Z" fill="#FAFAFA"/>
<path d="M141 30.0985H15.0426V60.6184H141V30.0985Z" fill="var(--primary-500)"/>
<path opacity="0.3" d="M141 30.0985H15.0426V60.6184H141V30.0985Z" fill="black"/>
<path d="M138.16 32.9389H12.2018V63.4589H138.16V32.9389Z" fill="var(--primary-500)"/>
<path opacity="0.1" d="M138.16 32.9389H12.2018V63.4589H138.16V32.9389Z" fill="#FAFAFA"/>
<path d="M132.151 57.4495V38.9484L18.2119 38.9484V57.4495L132.151 57.4495Z" fill="var(--primary-500)"/>
<path opacity="0.9" d="M132.151 57.4495V38.9484L18.2119 38.9484V57.4495L132.151 57.4495Z" fill="#FAFAFA"/>
<path d="M112.984 38.9484V57.4495H113.654V38.9484H112.984Z" fill="var(--primary-500)"/>
<path opacity="0.6" d="M112.984 38.9484V57.4495H113.654V38.9484H112.984Z" fill="#FAFAFA"/>
<path d="M21.0525 41.5004V54.8975H21.7216V41.5004H21.0525Z" fill="var(--primary-500)"/>
<path opacity="0.6" d="M21.0525 41.5004V54.8975H21.7216V41.5004H21.0525Z" fill="#FAFAFA"/>
<path d="M122.263 50.5346C121.777 50.5344 121.299 50.4144 120.87 50.1851C120.441 49.9557 120.076 49.6243 119.806 49.22C119.536 48.8157 119.37 48.3511 119.322 47.8673C119.275 47.3835 119.347 46.8955 119.533 46.4464C119.719 45.9972 120.013 45.6009 120.389 45.2925C120.765 44.9841 121.211 44.7731 121.687 44.6782C122.164 44.5833 122.657 44.6075 123.122 44.7485C123.587 44.8895 124.011 45.143 124.355 45.4867C124.768 45.9002 125.05 46.4271 125.164 47.0008C125.279 47.5745 125.22 48.1692 124.996 48.7096C124.772 49.25 124.393 49.7119 123.907 50.0367C123.42 50.3616 122.848 50.5349 122.263 50.5346ZM122.263 45.4266C121.765 45.4267 121.281 45.5999 120.896 45.9165C120.51 46.233 120.247 46.6735 120.15 47.1627C120.053 47.652 120.128 48.1597 120.364 48.5995C120.599 49.0392 120.98 49.3836 121.441 49.574C121.902 49.7645 122.415 49.7892 122.892 49.6439C123.369 49.4986 123.781 49.1923 124.058 48.7773C124.334 48.3622 124.458 47.8641 124.409 47.3678C124.359 46.8715 124.139 46.4077 123.786 46.0556C123.588 45.8516 123.351 45.689 123.09 45.5776C122.829 45.4662 122.547 45.408 122.263 45.4066V45.4266Z" fill="var(--primary-500)"/>
<path d="M126.097 51.7926C126.044 51.7924 125.991 51.7816 125.942 51.761C125.894 51.7404 125.849 51.7102 125.812 51.6724L123.789 49.6492C123.747 49.6133 123.713 49.5691 123.689 49.5194C123.665 49.4697 123.651 49.4156 123.649 49.3604C123.647 49.3052 123.657 49.2502 123.677 49.1988C123.697 49.1474 123.727 49.1007 123.766 49.0616C123.805 49.0226 123.852 48.992 123.904 48.9719C123.955 48.9518 124.01 48.9425 124.065 48.9446C124.12 48.9467 124.174 48.9602 124.224 48.9843C124.274 49.0083 124.318 49.0424 124.354 49.0843L126.377 51.1075C126.452 51.1826 126.494 51.2841 126.494 51.3899C126.494 51.4958 126.452 51.5973 126.377 51.6724C126.303 51.7479 126.202 51.7911 126.097 51.7926Z" fill="var(--primary-500)"/>
<g opacity="0.6">
<path opacity="0.6" d="M122.263 50.5346C121.777 50.5344 121.299 50.4144 120.87 50.1851C120.441 49.9557 120.076 49.6243 119.806 49.22C119.536 48.8157 119.37 48.3511 119.322 47.8673C119.275 47.3835 119.347 46.8955 119.533 46.4464C119.719 45.9972 120.013 45.6009 120.389 45.2925C120.765 44.9841 121.211 44.7731 121.687 44.6782C122.164 44.5833 122.657 44.6075 123.122 44.7485C123.587 44.8895 124.011 45.143 124.355 45.4867C124.768 45.9002 125.05 46.4271 125.164 47.0008C125.279 47.5745 125.22 48.1692 124.996 48.7096C124.772 49.25 124.393 49.7119 123.907 50.0367C123.42 50.3616 122.848 50.5349 122.263 50.5346ZM122.263 45.4266C121.765 45.4267 121.281 45.5999 120.896 45.9165C120.51 46.233 120.247 46.6735 120.15 47.1627C120.053 47.652 120.128 48.1597 120.364 48.5995C120.599 49.0392 120.98 49.3836 121.441 49.574C121.902 49.7645 122.415 49.7892 122.892 49.6439C123.369 49.4986 123.781 49.1923 124.058 48.7773C124.334 48.3622 124.458 47.8641 124.409 47.3678C124.359 46.8715 124.139 46.4077 123.786 46.0556C123.588 45.8516 123.351 45.689 123.09 45.5776C122.829 45.4662 122.547 45.408 122.263 45.4066V45.4266Z" fill="#FAFAFA"/>
<path opacity="0.6" d="M126.097 51.7926C126.044 51.7924 125.992 51.7816 125.943 51.761C125.894 51.7404 125.85 51.7102 125.813 51.6724L123.79 49.6492C123.748 49.6133 123.714 49.5691 123.69 49.5194C123.666 49.4697 123.652 49.4156 123.65 49.3604C123.648 49.3052 123.657 49.2502 123.677 49.1988C123.697 49.1474 123.728 49.1007 123.767 49.0616C123.806 49.0226 123.853 48.992 123.904 48.9719C123.955 48.9518 124.01 48.9425 124.066 48.9446C124.121 48.9467 124.175 48.9602 124.225 48.9843C124.274 49.0083 124.319 49.0424 124.354 49.0843L126.378 51.1075C126.452 51.1826 126.494 51.2841 126.494 51.3899C126.494 51.4958 126.452 51.5973 126.378 51.6724C126.304 51.7479 126.203 51.7911 126.097 51.7926Z" fill="#FAFAFA"/>
</g>
<path d="M95.0845 8.80905H82.4887V9.12154H95.0845V8.80905Z" fill="var(--primary-500)"/>
<path d="M95.0845 10.1351H82.4887V10.4476H95.0845V10.1351Z" fill="var(--primary-500)"/>
<path d="M95.0845 11.4652H82.4887V11.7777H95.0845V11.4652Z" fill="var(--primary-500)"/>
<path d="M95.0845 12.7913H82.4887V13.1038H95.0845V12.7913Z" fill="var(--primary-500)"/>
<path d="M95.0845 14.1174H82.4887V14.4299H95.0845V14.1174Z" fill="var(--primary-500)"/>
<path d="M90.7016 15.4475H82.4887V15.76H90.7016V15.4475Z" fill="var(--primary-500)"/>
<g opacity="0.5">
<path opacity="0.5" d="M95.0845 8.8091H82.4887V9.12159H95.0845V8.8091Z" fill="#FAFAFA"/>
<path opacity="0.5" d="M95.0847 10.1352H82.4889V10.4477H95.0847V10.1352Z" fill="#FAFAFA"/>
<path opacity="0.5" d="M95.0847 11.4653H82.4889V11.7777H95.0847V11.4653Z" fill="#FAFAFA"/>
<path opacity="0.5" d="M95.0847 12.7913H82.4889V13.1038H95.0847V12.7913Z" fill="#FAFAFA"/>
<path opacity="0.5" d="M95.0847 14.1174H82.4889V14.4299H95.0847V14.1174Z" fill="#FAFAFA"/>
<path opacity="0.5" d="M90.7018 15.4475H82.4889V15.76H90.7018V15.4475Z" fill="#FAFAFA"/>
</g>
<path d="M19.2694 66.0951H5.84827V66.2954H19.2694V66.0951Z" fill="var(--primary-500)"/>
<path d="M19.2694 66.9444H5.84827V67.1447H19.2694V66.9444Z" fill="var(--primary-500)"/>
<path d="M19.2694 67.7937H5.84827V67.9941H19.2694V67.7937Z" fill="var(--primary-500)"/>
<path d="M19.2694 68.6431H5.84827V68.8434H19.2694V68.6431Z" fill="var(--primary-500)"/>
<path d="M19.2694 69.4924H5.84827V69.6927H19.2694V69.4924Z" fill="var(--primary-500)"/>
<path d="M14.2855 70.3457H5.84827V70.546H14.2855V70.3457Z" fill="var(--primary-500)"/>
<g opacity="0.4">
<path opacity="0.4" d="M19.2691 66.095H5.84801V66.2954H19.2691V66.095Z" fill="#FAFAFA"/>
<path opacity="0.4" d="M19.2691 66.9444H5.84801V67.1447H19.2691V66.9444Z" fill="#FAFAFA"/>
<path opacity="0.4" d="M19.2691 67.7937H5.84801V67.994H19.2691V67.7937Z" fill="#FAFAFA"/>
<path opacity="0.4" d="M19.2691 68.643H5.84801V68.8433H19.2691V68.643Z" fill="#FAFAFA"/>
<path opacity="0.4" d="M19.2691 69.4924H5.84801V69.6927H19.2691V69.4924Z" fill="#FAFAFA"/>
<path opacity="0.4" d="M14.2853 70.3457H5.84801V70.5461H14.2853V70.3457Z" fill="#FAFAFA"/>
</g>
<path d="M63.3787 10.7761C62.7071 10.7761 62.0631 11.0429 61.5883 11.5177C61.1134 11.9926 60.8467 12.6366 60.8467 13.3081V21.6612C60.8467 22.3328 61.1134 22.9768 61.5883 23.4516C62.0631 23.9265 62.7071 24.1932 63.3787 24.1932C64.0502 24.1932 64.6942 23.9265 65.169 23.4516C65.6439 22.9768 65.9106 22.3328 65.9106 21.6612V13.3081C65.9106 12.6366 65.6439 11.9926 65.169 11.5177C64.6942 11.0429 64.0502 10.7761 63.3787 10.7761Z" fill="var(--primary-500)"/>
<path opacity="0.2" d="M63.3787 10.7761C62.7071 10.7761 62.0631 11.0429 61.5883 11.5177C61.1134 11.9926 60.8467 12.6366 60.8467 13.3081V21.6612C60.8467 22.3328 61.1134 22.9768 61.5883 23.4516C62.0631 23.9265 62.7071 24.1932 63.3787 24.1932C64.0502 24.1932 64.6942 23.9265 65.169 23.4516C65.6439 22.9768 65.9106 22.3328 65.9106 21.6612V13.3081C65.9106 12.6366 65.6439 11.9926 65.169 11.5177C64.6942 11.0429 64.0502 10.7761 63.3787 10.7761Z" fill="#FAFAFA"/>
<path d="M69.7244 5.79634C69.0549 5.79952 68.414 6.06768 67.9418 6.54217C67.4695 7.01667 67.2044 7.65887 67.2044 8.32832V21.6613C67.2044 22.3328 67.4712 22.9768 67.946 23.4516C68.4208 23.9265 69.0649 24.1932 69.7364 24.1932C70.4079 24.1932 71.0519 23.9265 71.5268 23.4516C72.0016 22.9768 72.2684 22.3328 72.2684 21.6613V8.32832C72.2684 7.9948 72.2025 7.66457 72.0745 7.35659C71.9465 7.04861 71.7589 6.76895 71.5225 6.53368C71.2861 6.2984 71.0056 6.11215 70.697 5.98561C70.3884 5.85908 70.0579 5.79476 69.7244 5.79634Z" fill="var(--primary-500)"/>
<path opacity="0.3" d="M69.7244 5.79634C69.0549 5.79952 68.414 6.06768 67.9418 6.54217C67.4695 7.01667 67.2044 7.65887 67.2044 8.32832V21.6613C67.2044 22.3328 67.4712 22.9768 67.946 23.4516C68.4208 23.9265 69.0649 24.1932 69.7364 24.1932C70.4079 24.1932 71.0519 23.9265 71.5268 23.4516C72.0016 22.9768 72.2684 22.3328 72.2684 21.6613V8.32832C72.2684 7.9948 72.2025 7.66457 72.0745 7.35659C71.9465 7.04861 71.7589 6.76895 71.5225 6.53368C71.2861 6.2984 71.0056 6.11215 70.697 5.98561C70.3884 5.85908 70.0579 5.79476 69.7244 5.79634Z" fill="black"/>
<path d="M76.0664 15.756C75.3949 15.756 74.7509 16.0227 74.2761 16.4976C73.8012 16.9724 73.5345 17.6164 73.5345 18.288V21.6613C73.5345 22.3328 73.8012 22.9768 74.2761 23.4516C74.7509 23.9265 75.3949 24.1932 76.0664 24.1932C76.3993 24.1938 76.729 24.1287 77.0366 24.0017C77.3443 23.8746 77.6239 23.6882 77.8594 23.4531C78.0949 23.2179 78.2818 22.9386 78.4093 22.6311C78.5368 22.3237 78.6024 21.9941 78.6024 21.6613V18.288C78.6024 17.9551 78.5368 17.6255 78.4093 17.3181C78.2818 17.0106 78.0949 16.7313 77.8594 16.4962C77.6239 16.261 77.3443 16.0746 77.0366 15.9476C76.729 15.8206 76.3993 15.7555 76.0664 15.756Z" fill="var(--primary-500)"/>
<path opacity="0.6" d="M76.0664 15.756C75.3949 15.756 74.7509 16.0227 74.2761 16.4976C73.8012 16.9724 73.5345 17.6164 73.5345 18.288V21.6613C73.5345 22.3328 73.8012 22.9768 74.2761 23.4516C74.7509 23.9265 75.3949 24.1932 76.0664 24.1932C76.3993 24.1938 76.729 24.1287 77.0366 24.0017C77.3443 23.8746 77.6239 23.6882 77.8594 23.4531C78.0949 23.2179 78.2818 22.9386 78.4093 22.6311C78.5368 22.3237 78.6024 21.9941 78.6024 21.6613V18.288C78.6024 17.9551 78.5368 17.6255 78.4093 17.3181C78.2818 17.0106 78.0949 16.7313 77.8594 16.4962C77.6239 16.261 77.3443 16.0746 77.0366 15.9476C76.729 15.8206 76.3993 15.7555 76.0664 15.756Z" fill="#FAFAFA"/>
<path d="M129.546 73.022H139.782L122.307 54.8975L129.546 73.022Z" fill="var(--primary-500)"/>
<g opacity="0.1">
<path opacity="0.1" d="M129.546 73.022H139.783L122.307 54.8975L129.546 73.022Z" fill="black"/>
</g>
<g style="mix-blend-mode:multiply">
<path d="M119.707 63.4549L122.307 54.8975L123.782 63.4549H119.707Z" fill="var(--primary-500)"/>
</g>
<path d="M122.307 54.8975V80.2573L124.118 78.4505L129.546 73.022L122.307 54.8975Z" fill="var(--primary-500)"/>
<path opacity="0.3" d="M122.307 54.8975V80.2573L124.118 78.4505L129.546 73.022L122.307 54.8975Z" fill="#FAFAFA"/>
<path d="M140.408 0.5H117.972C116.835 0.504215 115.746 0.957499 114.941 1.76114C114.137 2.56479 113.683 3.6537 113.678 4.79074V16.3769C113.683 17.5133 114.137 18.6016 114.94 19.4051C115.744 20.2087 116.832 20.6624 117.968 20.6677H134.43L134.31 24.718L138.464 20.6677H140.4C141.537 20.6635 142.626 20.2102 143.43 19.4065C144.235 18.6029 144.689 17.514 144.694 16.3769V4.79074C144.689 3.65508 144.236 2.56737 143.433 1.76395C142.63 0.960534 141.543 0.506321 140.408 0.5ZM117.467 5.43575C117.467 5.11699 117.594 4.81129 117.82 4.58589C118.045 4.36049 118.351 4.23387 118.669 4.23387H123.833C124.152 4.23387 124.458 4.36049 124.683 4.58589C124.909 4.81129 125.035 5.11699 125.035 5.43575C125.035 5.75452 124.909 6.06022 124.683 6.28562C124.458 6.51102 124.152 6.63764 123.833 6.63764H118.665C118.347 6.63658 118.043 6.50949 117.818 6.2842C117.594 6.05892 117.467 5.75382 117.467 5.43575ZM139.134 16.6534H130.208C130.035 16.6836 129.857 16.6757 129.688 16.6302C129.519 16.5847 129.361 16.5026 129.227 16.3898C129.093 16.277 128.985 16.1361 128.911 15.9772C128.837 15.8182 128.798 15.6449 128.798 15.4695C128.798 15.2941 128.837 15.1209 128.911 14.9619C128.985 14.8029 129.093 14.6621 129.227 14.5492C129.361 14.4364 129.519 14.3544 129.688 14.3088C129.857 14.2633 130.035 14.2554 130.208 14.2857H139.134C139.306 14.2554 139.484 14.2633 139.653 14.3088C139.822 14.3544 139.98 14.4364 140.114 14.5492C140.248 14.6621 140.356 14.8029 140.43 14.9619C140.504 15.1209 140.543 15.2941 140.543 15.4695C140.543 15.6449 140.504 15.8182 140.43 15.9772C140.356 16.1361 140.248 16.277 140.114 16.3898C139.98 16.5026 139.822 16.5847 139.653 16.6302C139.484 16.6757 139.306 16.6836 139.134 16.6534ZM139.134 11.6415H119.867C119.694 11.6718 119.517 11.6639 119.348 11.6183C119.178 11.5728 119.021 11.4907 118.887 11.3779C118.752 11.2651 118.645 11.1243 118.57 10.9653C118.496 10.8063 118.458 10.633 118.458 10.4576C118.458 10.2823 118.496 10.109 118.57 9.95001C118.645 9.79103 118.752 9.65019 118.887 9.53737C119.021 9.42456 119.178 9.3425 119.348 9.29697C119.517 9.25143 119.694 9.24352 119.867 9.27379H139.134C139.306 9.24352 139.484 9.25143 139.653 9.29697C139.822 9.3425 139.98 9.42456 140.114 9.53737C140.248 9.65019 140.356 9.79103 140.43 9.95001C140.504 10.109 140.543 10.2823 140.543 10.4576C140.543 10.633 140.504 10.8063 140.43 10.9653C140.356 11.1243 140.248 11.2651 140.114 11.3779C139.98 11.4907 139.822 11.5728 139.653 11.6183C139.484 11.6639 139.306 11.6718 139.134 11.6415ZM139.134 6.62963H127.728C127.409 6.62963 127.103 6.503 126.878 6.2776C126.652 6.05221 126.526 5.7465 126.526 5.42774C126.526 5.10898 126.652 4.80328 126.878 4.57788C127.103 4.35248 127.409 4.22585 127.728 4.22585H139.134C139.452 4.22585 139.758 4.35248 139.983 4.57788C140.209 4.80328 140.335 5.10898 140.335 5.42774C140.335 5.7465 140.209 6.05221 139.983 6.2776C139.758 6.503 139.452 6.62963 139.134 6.62963Z" fill="var(--primary-500)"/>
<path d="M105.32 37.2257C104.362 34.5936 102.899 32.1739 101.013 30.1025H69.1591C67.2734 32.1739 65.8105 34.5936 64.8523 37.2257L69.2592 59.1642C72.6306 62.8189 77.1632 65.1938 82.0871 65.8854C87.011 66.577 92.0224 65.5427 96.2702 62.9582C100.518 60.3737 103.74 56.3984 105.389 51.7075C107.038 47.0167 107.012 41.8997 105.316 37.2257H105.32Z" fill="var(--primary-500)"/>
<path opacity="0.1" d="M105.32 37.2257C104.362 34.5936 102.899 32.1739 101.013 30.1025H69.1591C67.2734 32.1739 65.8105 34.5936 64.8523 37.2257L69.2592 59.1642C72.6306 62.8189 77.1632 65.1938 82.0871 65.8854C87.011 66.577 92.0224 65.5427 96.2702 62.9582C100.518 60.3737 103.74 56.3984 105.389 51.7075C107.038 47.0167 107.012 41.8997 105.316 37.2257H105.32Z" fill="#FAFAFA"/>
<path d="M106.59 45.5708C106.362 50.6294 104.353 55.4445 100.917 59.1642H69.2671C66.5952 56.2608 64.7714 52.6799 63.9943 48.8115C63.2172 44.9431 63.5167 40.9356 64.8602 37.2257H105.324C106.296 39.8958 106.726 42.7327 106.59 45.5708Z" fill="var(--primary-500)"/>
<path opacity="0.9" d="M106.59 45.5708C106.362 50.6294 104.353 55.4445 100.917 59.1642H69.2671C66.5952 56.2608 64.7714 52.6799 63.9943 48.8115C63.2172 44.9431 63.5167 40.9356 64.8602 37.2257H105.324C106.296 39.8958 106.726 42.7327 106.59 45.5708Z" fill="#FAFAFA"/>
<path opacity="0.3" d="M106.59 45.5708C106.34 50.8941 104.121 55.9346 100.363 59.7129C96.6048 63.4913 91.5763 65.7375 86.2544 66.0152C80.9325 66.2928 75.6975 64.5821 71.5665 61.2154C67.4356 57.8487 64.7038 53.0664 63.9021 47.798C63.1003 42.5295 64.2858 37.1511 67.2282 32.708C70.1705 28.2648 74.6597 25.0742 79.8232 23.7561C84.9868 22.4381 90.4559 23.0867 95.1679 25.576C99.8799 28.0653 103.498 32.2175 105.32 37.2257C106.291 39.8958 106.723 42.7324 106.59 45.5708Z" fill="white"/>
<path opacity="0.4" d="M97.2189 26.8013L66.2662 55.0297C66.1113 54.7439 65.9591 54.4555 65.8095 54.1643C64.8631 52.2697 64.2055 50.2441 63.8584 48.1549L90.5925 23.7726C92.9581 24.396 95.1994 25.4204 97.2189 26.8013Z" fill="white"/>
<path opacity="0.4" d="M105.5 37.7425L76.4184 64.2802C73.4017 62.9492 70.7315 60.9425 68.6141 58.415L100.392 29.4335C102.708 31.776 104.455 34.6186 105.5 37.7425Z" fill="white"/>
<path d="M106.582 32.1657C104.127 27.9088 100.464 24.4757 96.0572 22.3009C91.6505 20.1261 86.6977 19.3073 81.8255 19.948C76.9533 20.5888 72.3807 22.6604 68.6862 25.9007C64.9916 29.1409 62.3413 33.4043 61.0704 38.1513C59.7995 42.8982 59.9653 47.9155 61.5466 52.5683C63.128 57.221 66.054 61.3001 69.9543 64.2895C73.8546 67.2789 78.554 69.0442 83.4579 69.362C88.3618 69.6798 93.2497 68.5359 97.5033 66.075C103.2 62.779 107.356 57.3566 109.058 50.9987C110.761 44.6408 109.87 37.8673 106.582 32.1657ZM68.1211 54.3766C66.1841 51.0219 65.2853 47.1681 65.5385 43.3026C65.7917 39.437 67.1854 35.7334 69.5434 32.6599C71.9015 29.5865 75.1179 27.2813 78.786 26.0358C82.4542 24.7903 86.4093 24.6605 90.1512 25.6628C93.8931 26.6651 97.2537 28.7544 99.8082 31.6667C102.363 34.5789 103.996 38.1832 104.502 42.0238C105.008 45.8644 104.364 49.7689 102.651 53.2434C100.938 56.7179 98.2337 59.6065 94.8792 61.5439C92.6519 62.8303 90.1931 63.6653 87.6431 64.0013C85.0931 64.3373 82.5019 64.1677 80.0175 63.5021C77.5331 62.8366 75.2041 61.6881 73.1636 60.1223C71.1231 58.5566 69.411 56.6042 68.1251 54.3766H68.1211Z" fill="var(--primary-500)"/>
<path opacity="0.1" d="M106.582 32.1657C104.127 27.9088 100.464 24.4757 96.0572 22.3009C91.6505 20.1261 86.6977 19.3073 81.8255 19.948C76.9533 20.5888 72.3807 22.6604 68.6862 25.9007C64.9916 29.1409 62.3413 33.4043 61.0704 38.1513C59.7995 42.8982 59.9653 47.9155 61.5466 52.5683C63.128 57.221 66.054 61.3001 69.9543 64.2895C73.8546 67.2789 78.554 69.0442 83.4579 69.362C88.3618 69.6798 93.2497 68.5359 97.5033 66.075C103.2 62.779 107.356 57.3566 109.058 50.9987C110.761 44.6408 109.87 37.8673 106.582 32.1657ZM68.1211 54.3766C66.1841 51.0219 65.2853 47.1681 65.5385 43.3026C65.7917 39.437 67.1854 35.7334 69.5434 32.6599C71.9015 29.5865 75.1179 27.2813 78.786 26.0358C82.4542 24.7903 86.4093 24.6605 90.1512 25.6628C93.8931 26.6651 97.2537 28.7544 99.8082 31.6667C102.363 34.5789 103.996 38.1832 104.502 42.0238C105.008 45.8644 104.364 49.7689 102.651 53.2434C100.938 56.7179 98.2337 59.6065 94.8792 61.5439C92.6519 62.8303 90.1931 63.6653 87.6431 64.0013C85.0931 64.3373 82.5019 64.1677 80.0175 63.5021C77.5331 62.8366 75.2041 61.6881 73.1636 60.1223C71.1231 58.5566 69.411 56.6042 68.1251 54.3766H68.1211Z" fill="black"/>
<path d="M27.9666 70.1214L31.0354 70.8345L28.4914 72.7335C28.4914 72.7335 26.6686 71.9082 26.5844 70.6142L27.9666 70.1214Z" fill="#E4897B"/>
<path d="M32.6781 72.8777L30.4666 74.352L28.4915 72.7335L31.0355 70.8385L32.6781 72.8777Z" fill="#E4897B"/>
<path d="M67.3922 57.6578C64.1311 60.0616 60.7858 62.3452 57.4245 64.5767C54.0632 66.8082 50.6579 68.9836 47.2365 71.119C43.8151 73.2543 40.3617 75.3456 36.8963 77.3768C35.1656 78.4104 33.4188 79.412 31.6881 80.4296C30.8284 80.9769 29.891 81.3915 28.9077 81.6595C28.3831 81.7987 27.8466 81.8886 27.3052 81.9279C26.7042 81.977 26.0993 81.946 25.5064 81.8358C25.0827 81.752 24.6797 81.5854 24.3204 81.3457C23.9611 81.1059 23.6526 80.7977 23.4126 80.4386C23.1726 80.0795 23.0058 79.6766 22.9216 79.253C22.8375 78.8293 22.8377 78.3933 22.9223 77.9697C22.9497 77.8336 22.9872 77.6997 23.0345 77.5691C23.2279 77.0011 23.4974 76.4621 23.8358 75.9666C24.1375 75.5211 24.481 75.1052 24.8614 74.7246C25.5859 74.0072 26.4137 73.4023 27.3172 72.9298C29.068 71.9322 30.8067 70.9266 32.5695 69.9371C36.079 67.954 39.6206 66.0229 43.1701 64.1159C46.7197 62.2089 50.3134 60.362 53.927 58.5592C57.5407 56.7564 61.1824 55.0016 64.9003 53.3831C65.4613 53.135 66.0943 53.103 66.6775 53.2931C67.2608 53.4833 67.7532 53.8822 68.0602 54.4133C68.3673 54.9444 68.4672 55.5702 68.341 56.1705C68.2147 56.7709 67.8711 57.3034 67.3762 57.6658L67.3922 57.6578Z" fill="var(--primary-500)"/>
<path opacity="0.1" d="M67.3922 57.6578C64.1311 60.0616 60.7858 62.3452 57.4245 64.5767C54.0632 66.8082 50.6579 68.9836 47.2365 71.119C43.8151 73.2543 40.3617 75.3456 36.8963 77.3768C35.1656 78.4104 33.4188 79.412 31.6881 80.4296C30.8284 80.9769 29.891 81.3915 28.9077 81.6595C28.3831 81.7987 27.8466 81.8886 27.3052 81.9279C26.7042 81.977 26.0993 81.946 25.5064 81.8358C25.0827 81.752 24.6797 81.5854 24.3204 81.3457C23.9611 81.1059 23.6526 80.7977 23.4126 80.4386C23.1726 80.0795 23.0058 79.6766 22.9216 79.253C22.8375 78.8293 22.8377 78.3933 22.9223 77.9697C22.9497 77.8336 22.9872 77.6997 23.0345 77.5691C23.2279 77.0011 23.4974 76.4621 23.8358 75.9666C24.1375 75.5211 24.481 75.1052 24.8614 74.7246C25.5859 74.0072 26.4137 73.4023 27.3172 72.9298C29.068 71.9322 30.8067 70.9266 32.5695 69.9371C36.079 67.954 39.6206 66.0229 43.1701 64.1159C46.7197 62.2089 50.3134 60.362 53.927 58.5592C57.5407 56.7564 61.1824 55.0016 64.9003 53.3831C65.4613 53.135 66.0943 53.103 66.6775 53.2931C67.2608 53.4833 67.7532 53.8822 68.0602 54.4133C68.3673 54.9444 68.4672 55.5702 68.341 56.1705C68.2147 56.7709 67.8711 57.3034 67.3762 57.6658L67.3922 57.6578Z" fill="black"/>
<path d="M32.4132 51.1435C32.2129 51.4681 31.9845 51.8607 31.7682 52.2292C31.5518 52.5978 31.3395 52.9824 31.1392 53.371C30.7385 54.1362 30.3379 54.9135 29.9373 55.7027C29.5367 56.4919 29.2121 57.3052 28.8836 58.1065C28.7234 58.5071 28.5551 58.9077 28.4069 59.3084L28.1825 59.9213C28.1385 60.0375 28.1305 60.0856 28.1024 60.1697C28.0744 60.2539 28.0623 60.334 28.0383 60.4141C27.8819 61.2058 27.8028 62.0109 27.8019 62.8179C27.7819 63.6792 27.8019 64.5566 27.85 65.442C27.8981 66.3274 27.9462 67.2168 28.0263 68.1062C28.1064 68.9956 28.1865 69.901 28.2707 70.7824L26.7242 71.0989C26.4518 70.2055 26.2395 69.3161 26.0271 68.4147C25.8148 67.5133 25.6546 66.6078 25.4983 65.6864C25.3421 64.7649 25.2379 63.8395 25.1698 62.882C25.0865 61.8793 25.112 60.8705 25.2459 59.8733C25.27 59.733 25.29 59.6008 25.326 59.4726C25.3621 59.3444 25.3982 59.1641 25.4302 59.072L25.6265 58.3909C25.7547 57.9382 25.903 57.4895 26.0552 57.0448C26.3637 56.1514 26.7002 55.274 27.0768 54.4087C27.4534 53.5433 27.854 52.698 28.2787 51.8647C28.499 51.464 28.7314 51.0354 28.9678 50.6227C29.2041 50.2101 29.4405 49.8215 29.737 49.3848L32.4132 51.1435Z" fill="#E4897B"/>
<path d="M30.7024 133.866C30.4321 133.857 30.1634 133.819 29.9012 133.753C29.8871 133.751 29.8742 133.744 29.8641 133.734C29.854 133.724 29.8474 133.711 29.8451 133.697C29.8425 133.683 29.8442 133.668 29.8499 133.655C29.8556 133.641 29.865 133.629 29.8771 133.621C29.9853 133.549 30.9308 132.94 31.2953 133.104C31.3359 133.123 31.3706 133.152 31.396 133.189C31.4214 133.225 31.4364 133.268 31.4396 133.313C31.4584 133.384 31.4571 133.459 31.4359 133.53C31.4147 133.601 31.3744 133.664 31.3194 133.713C31.1389 133.837 30.9197 133.891 30.7024 133.866ZM30.0894 133.649C30.6343 133.757 31.0429 133.737 31.1992 133.593C31.2335 133.56 31.2586 133.519 31.272 133.473C31.2853 133.427 31.2865 133.379 31.2753 133.333C31.2748 133.312 31.2685 133.292 31.2572 133.275C31.2458 133.258 31.2299 133.245 31.2112 133.237C31.0229 133.152 30.4741 133.417 30.0894 133.649Z" fill="var(--primary-500)"/>
<path d="M29.8975 133.757C29.8857 133.761 29.8732 133.761 29.8614 133.757C29.8499 133.751 29.8404 133.742 29.834 133.731C29.8276 133.719 29.8246 133.706 29.8254 133.693C29.8254 133.657 29.8254 132.76 30.1659 132.459C30.208 132.422 30.2576 132.393 30.3114 132.376C30.3653 132.359 30.4222 132.353 30.4784 132.359C30.5375 132.36 30.5944 132.381 30.6397 132.419C30.6849 132.457 30.7157 132.509 30.7268 132.567C30.7989 132.916 30.23 133.589 29.9255 133.769C29.9153 133.768 29.9057 133.764 29.8975 133.757ZM30.4303 132.491C30.3696 132.492 30.3111 132.515 30.2661 132.555C30.0691 132.846 29.9682 133.19 29.9776 133.541C30.2741 133.301 30.6266 132.796 30.5826 132.584C30.5826 132.547 30.5545 132.507 30.4624 132.495L30.4303 132.491Z" fill="var(--primary-500)"/>
<path d="M44.8925 133.865C44.5625 133.86 44.2337 133.823 43.911 133.753C43.8956 133.752 43.8813 133.745 43.8704 133.734C43.8595 133.723 43.8526 133.709 43.8509 133.693C43.8491 133.678 43.852 133.663 43.8591 133.649C43.8663 133.635 43.8774 133.624 43.891 133.617C44.0312 133.545 45.2731 132.912 45.6537 133.12C45.6903 133.139 45.7214 133.167 45.7439 133.201C45.7664 133.236 45.7795 133.276 45.7819 133.317C45.7907 133.383 45.7828 133.45 45.759 133.512C45.7352 133.574 45.6963 133.63 45.6457 133.673C45.4242 133.822 45.1582 133.89 44.8925 133.865ZM44.1554 133.649C44.8485 133.765 45.3573 133.733 45.5496 133.565C45.5815 133.535 45.6058 133.498 45.6205 133.457C45.6351 133.416 45.6396 133.372 45.6337 133.329C45.6336 133.312 45.629 133.296 45.6206 133.282C45.6121 133.268 45.6 133.256 45.5856 133.249C45.3773 133.136 44.6642 133.405 44.1554 133.649Z" fill="var(--primary-500)"/>
<path d="M43.9234 133.757C43.9171 133.76 43.9103 133.761 43.9034 133.761C43.8965 133.761 43.8897 133.76 43.8833 133.757C43.8718 133.752 43.8625 133.742 43.8567 133.731C43.851 133.719 43.8491 133.706 43.8513 133.693C43.8513 133.657 43.9274 132.816 44.316 132.491C44.4277 132.398 44.5715 132.352 44.7167 132.363C44.921 132.383 44.9771 132.487 44.9931 132.571C45.0492 132.924 44.316 133.597 43.9434 133.773L43.9234 133.757ZM44.6686 132.491C44.5745 132.492 44.4837 132.526 44.4122 132.588C44.1824 132.859 44.0424 133.195 44.0116 133.549C44.3881 133.321 44.8889 132.792 44.8529 132.58C44.8529 132.58 44.8529 132.507 44.7086 132.495L44.6686 132.491Z" fill="var(--primary-500)"/>
<path d="M37.157 39.1127C37.4014 40.9836 37.9582 44.7776 36.6041 45.9234C36.6041 45.9234 37.0047 47.8304 40.4181 48.0507C44.192 48.2951 42.3411 46.296 42.3411 46.296C40.3139 45.671 40.4662 44.1446 40.9189 42.7344L37.157 39.1127Z" fill="#E4897B"/>
<path d="M44.1558 35.3107C44.1318 35.3101 44.1083 35.3032 44.0877 35.2906C44.0703 35.2818 44.0548 35.2695 44.0422 35.2545C44.0297 35.2395 44.0203 35.2221 44.0147 35.2034C44.0091 35.1846 44.0073 35.165 44.0095 35.1455C44.0118 35.1261 44.0179 35.1073 44.0276 35.0903C44.1317 34.8784 44.2856 34.6948 44.476 34.5553C44.6665 34.4157 44.8879 34.3244 45.1214 34.2891C45.1572 34.2904 45.1913 34.3048 45.2174 34.3294C45.2435 34.3541 45.2598 34.3873 45.2632 34.423C45.2666 34.4588 45.257 34.4945 45.2361 34.5236C45.2151 34.5528 45.1843 34.5733 45.1494 34.5815C44.9667 34.6134 44.7939 34.6872 44.6445 34.797C44.4951 34.9068 44.3731 35.0497 44.2881 35.2145C44.2767 35.2409 44.2584 35.2638 44.2351 35.2807C44.2119 35.2976 44.1845 35.308 44.1558 35.3107Z" fill="#263238"/>
<path d="M45.2335 36.9533C45.5095 37.5035 45.86 38.0131 46.2751 38.4677C46.1561 38.5712 46.0159 38.6474 45.8643 38.691C45.7128 38.7346 45.5535 38.7445 45.3977 38.7201L45.2335 36.9533Z" fill="#DE5753"/>
<path d="M44.969 36.5446C44.993 36.797 45.1453 36.9853 45.3055 36.9693C45.4658 36.9533 45.586 36.7409 45.5619 36.4885C45.5379 36.2361 45.3856 36.0479 45.2214 36.0639C45.0571 36.0799 44.945 36.2962 44.969 36.5446Z" fill="#263238"/>
<path d="M45.1691 36.0839L45.754 35.8556C45.754 35.8556 45.4736 36.3523 45.1691 36.0839Z" fill="#263238"/>
<path d="M40.494 133.681H43.615L43.8233 126.462H40.7024L40.494 133.681Z" fill="#E4897B"/>
<path d="M26.3239 133.681H29.4448L30.4464 126.462H27.3295L26.3239 133.681Z" fill="#E4897B"/>
<path d="M29.637 133.321H26.1315C26.0714 133.32 26.0131 133.341 25.9674 133.38C25.9218 133.419 25.8918 133.474 25.8831 133.533L25.4824 136.305C25.4745 136.375 25.4815 136.446 25.5029 136.513C25.5242 136.58 25.5595 136.642 25.6064 136.695C25.6533 136.747 25.7107 136.789 25.7749 136.818C25.8392 136.847 25.9088 136.862 25.9792 136.862C27.1811 136.842 27.7901 136.77 29.3325 136.77C30.278 136.77 31.6641 136.866 32.9742 136.866C34.2843 136.866 34.3524 135.572 33.8075 135.456C31.3637 134.931 30.9791 134.206 30.1538 133.513C30.0097 133.39 29.8266 133.322 29.637 133.321Z" fill="#263238"/>
<path d="M43.719 133.321H40.2175C40.1572 133.319 40.0984 133.34 40.0526 133.379C40.0067 133.418 39.977 133.473 39.9691 133.533L39.5685 136.305C39.5612 136.376 39.5687 136.447 39.5905 136.514C39.6124 136.581 39.648 136.643 39.6952 136.695C39.7424 136.747 39.8001 136.789 39.8645 136.818C39.9289 136.847 39.9987 136.862 40.0693 136.862C41.2712 136.842 41.8801 136.77 43.4185 136.77C44.368 136.77 46.3271 136.866 47.6372 136.866C48.9472 136.866 49.0153 135.572 48.4705 135.456C46.0266 134.931 45.0651 134.206 44.2398 133.513C44.0947 133.389 43.91 133.321 43.719 133.321Z" fill="#263238"/>
<path d="M43.8196 126.462L43.7154 130.184H40.5945L40.7027 126.462H43.8196Z" fill="#CE6F64"/>
<path d="M27.325 126.462H30.4459L29.9291 130.184H26.8082L27.325 126.462Z" fill="#CE6F64"/>
<path d="M33.7433 51.6243C33.1511 52.5497 32.465 53.4116 31.6961 54.1964L31.3396 53.96L27.3894 51.3359C27.3894 51.3359 29.5448 46.5283 31.1673 46.2839C32.7177 46.0355 33.8475 47.6381 34.3723 49.3528C34.5727 49.9737 34.2401 50.815 33.7433 51.6243Z" fill="var(--primary-500)"/>
<path opacity="0.6" d="M33.7433 51.6243C33.1511 52.5497 32.465 53.4116 31.6961 54.1964L31.3396 53.96L27.3894 51.3359C27.3894 51.3359 29.5448 46.5283 31.1673 46.2839C32.7177 46.0355 33.8475 47.6381 34.3723 49.3528C34.5727 49.9737 34.2401 50.815 33.7433 51.6243Z" fill="#FAFAFA"/>
<path d="M33.7433 51.6243C33.151 52.5497 32.4649 53.4116 31.696 54.1964L31.3395 53.96C31.5158 52.5177 32.0766 51.0875 32.7176 50.6348C33.1103 50.6748 33.4588 51.0915 33.7433 51.6243Z" fill="var(--primary-500)"/>
<path opacity="0.4" d="M33.7433 51.6243C33.151 52.5497 32.4649 53.4116 31.696 54.1964L31.3395 53.96C31.5158 52.5177 32.0766 51.0875 32.7176 50.6348C33.1103 50.6748 33.4588 51.0915 33.7433 51.6243Z" fill="#FAFAFA"/>
<path d="M47.2567 54.0241C47.0684 55.226 46.824 56.6402 46.4955 58.3188C46.0949 60.4662 45.534 63.0422 44.8249 66.1231L32.185 65.3218C32.7299 60.1898 32.9422 57.0168 31.1674 46.2999C32.9618 46.0493 34.7722 45.9301 36.5839 45.9434C38.5027 45.9308 40.4199 46.0553 42.3209 46.316C44.7728 46.7166 47.5291 47.4538 47.5291 47.4538C47.5291 47.4538 48.2342 47.7302 47.2567 54.0241Z" fill="var(--primary-500)"/>
<path opacity="0.6" d="M47.2567 54.0241C47.0684 55.226 46.824 56.6402 46.4955 58.3188C46.0949 60.4662 45.534 63.0422 44.8249 66.1231L32.185 65.3218C32.7299 60.1898 32.9422 57.0168 31.1674 46.2999C32.9618 46.0493 34.7722 45.9301 36.5839 45.9434C38.5027 45.9308 40.4199 46.0553 42.3209 46.316C44.7728 46.7166 47.5291 47.4538 47.5291 47.4538C47.5291 47.4538 48.2342 47.7302 47.2567 54.0241Z" fill="#FAFAFA"/>
<path d="M47.2563 54.0241C47.068 55.226 46.8237 56.6402 46.4951 58.3189C45.7999 56.8403 45.2226 55.3091 44.7684 53.7397H47.1161L47.2563 54.0241Z" fill="var(--primary-500)"/>
<path opacity="0.4" d="M47.2563 54.0241C47.068 55.226 46.8237 56.6402 46.4951 58.3189C45.7999 56.8403 45.2226 55.3091 44.7684 53.7397H47.1161L47.2563 54.0241Z" fill="#FAFAFA"/>
<path d="M36.4675 36.4805C36.9443 39.5374 37.0845 40.8434 38.7872 42.2737C41.3472 44.429 44.9969 43.1711 45.4416 40.0301C45.8423 37.2057 44.9929 32.6786 41.864 31.7411C41.1758 31.5299 40.4449 31.4984 39.7411 31.6495C39.0372 31.8006 38.3837 32.1294 37.8428 32.6044C37.3019 33.0795 36.8915 33.6851 36.6508 34.3635C36.4101 35.042 36.347 35.7708 36.4675 36.4805Z" fill="#E4897B"/>
<path d="M41.4837 65.9068C41.4837 65.9068 41.2833 71.4715 40.8026 78.4905C40.402 84.3798 39.797 91.2866 38.9517 96.7913L38.9276 96.9435C37.4093 106.687 30.6827 129.459 30.6827 129.459H26.428C26.428 129.459 29.9335 107.464 30.7027 97.8089C32.6538 73.4226 27.7661 70.6622 32.185 65.2858L41.4837 65.9068Z" fill="var(--primary-500)"/>
<path opacity="0.3" d="M41.4837 65.9068C41.4837 65.9068 41.2833 71.4715 40.8026 78.4905C40.402 84.3798 39.797 91.2866 38.9517 96.7913L38.9276 96.9435C37.4093 106.687 30.6827 129.459 30.6827 129.459H26.428C26.428 129.459 29.9335 107.464 30.7027 97.8089C32.6538 73.4226 27.7661 70.6622 32.185 65.2858L41.4837 65.9068Z" fill="black"/>
<path d="M40.8024 78.4905C40.4017 84.3798 39.7968 91.2866 38.9514 96.7913C37.5132 89.64 35.1495 79.1956 38.3225 72.3529C39.0797 74.2959 39.961 76.4914 40.8024 78.4905Z" fill="var(--primary-500)"/>
<path opacity="0.4" d="M40.8024 78.4905C40.4017 84.3798 39.7968 91.2866 38.9514 96.7913C37.5132 89.64 35.1495 79.1956 38.3225 72.3529C39.0797 74.2959 39.961 76.4914 40.8024 78.4905Z" fill="black"/>
<path d="M44.8249 66.1271C44.8249 66.1271 48.4305 87.4967 48.2142 97.0076C48.0019 106.903 44.3762 129.459 44.3762 129.459H40.1616C40.1616 129.459 40.8266 107.476 40.454 97.7608C40.0534 87.1681 35.5663 65.5221 35.5663 65.5221L44.8249 66.1271Z" fill="var(--primary-500)"/>
<path opacity="0.3" d="M44.8249 66.1271C44.8249 66.1271 48.4305 87.4967 48.2142 97.0076C48.0019 106.903 44.3762 129.459 44.3762 129.459H40.1616C40.1616 129.459 40.8266 107.476 40.454 97.7608C40.0534 87.1681 35.5663 65.5221 35.5663 65.5221L44.8249 66.1271Z" fill="black"/>
<path d="M39.44 129.659H45.0929L45.5336 127.764L39.2397 127.808L39.44 129.659Z" fill="#263238"/>
<path d="M25.8108 129.659H31.4636L31.9043 127.764L25.8508 127.808L25.8108 129.659Z" fill="#263238"/>
<path d="M32.0408 64.5566L31.3998 65.6544C31.3477 65.7385 31.4478 65.8346 31.5921 65.8427L44.8489 66.704C44.9611 66.704 45.0612 66.6639 45.0732 66.5918L45.2615 65.4661C45.2615 65.3899 45.1774 65.3178 45.0532 65.3098L32.2331 64.4765C32.1971 64.4749 32.1612 64.4812 32.128 64.4951C32.0947 64.5089 32.0649 64.5299 32.0408 64.5566Z" fill="#263238"/>
<path d="M33.6676 66.0951L33.3271 66.071C33.259 66.071 33.2069 66.027 33.2149 65.9869L33.4713 64.5246C33.4713 64.4845 33.5394 64.4525 33.6075 64.4565L33.952 64.4765C34.0202 64.4765 34.0682 64.5206 34.0642 64.5647L33.8078 66.0229C33.7998 66.067 33.7357 66.0991 33.6676 66.0951Z" fill="var(--primary-500)"/>
<path opacity="0.3" d="M33.6676 66.0951L33.3271 66.071C33.259 66.071 33.2069 66.027 33.2149 65.9869L33.4713 64.5246C33.4713 64.4845 33.5394 64.4525 33.6075 64.4565L33.952 64.4765C34.0202 64.4765 34.0682 64.5206 34.0642 64.5647L33.8078 66.0229C33.7998 66.067 33.7357 66.0991 33.6676 66.0951Z" fill="black"/>
<path d="M41.9643 66.6319L41.6237 66.6119C41.5556 66.6119 41.5036 66.5678 41.5116 66.5237L41.768 65.0654C41.768 65.0214 41.8361 64.9933 41.9082 64.9973L42.2487 65.0174C42.3168 65.0174 42.3689 65.0614 42.3609 65.1055L42.1045 66.5638C42.1085 66.6079 42.0444 66.6359 41.9643 66.6319Z" fill="var(--primary-500)"/>
<path opacity="0.3" d="M41.9643 66.6319L41.6237 66.6119C41.5556 66.6119 41.5036 66.5678 41.5116 66.5237L41.768 65.0654C41.768 65.0214 41.8361 64.9933 41.9082 64.9973L42.2487 65.0174C42.3168 65.0174 42.3689 65.0614 42.3609 65.1055L42.1045 66.5638C42.1085 66.6079 42.0444 66.6359 41.9643 66.6319Z" fill="black"/>
<path d="M48.2457 50.6588C48.7265 52.2613 49.1832 53.8838 49.6279 55.5024L50.97 60.346L51.1382 60.947L51.1823 61.0952L51.2023 61.1713V61.2114C51.2167 61.2644 51.2341 61.3166 51.2544 61.3676C51.3528 61.6111 51.4879 61.8381 51.6551 62.0407C52.1334 62.5455 52.6876 62.9727 53.2976 63.3067C54.6952 64.063 56.1735 64.6597 57.7046 65.0855L57.4722 66.6479C55.6757 66.5553 53.9061 66.1725 52.232 65.5141C51.3057 65.1511 50.4521 64.6246 49.712 63.9597C49.2881 63.5667 48.9356 63.1031 48.6704 62.5895C48.5987 62.4507 48.5359 62.3075 48.4821 62.1609L48.438 62.0527L48.41 61.9766L48.3579 61.8283L48.1455 61.2234C47.5847 59.6209 47.0638 58.0183 46.5711 56.3918C46.0783 54.7652 45.5935 53.1627 45.1528 51.5281L48.2457 50.6588Z" fill="#E4897B"/>
<path d="M47.529 47.4377C49.1315 47.9626 50.8141 53.2028 50.8141 53.2028L45.029 55.6947C45.029 55.6947 42.6253 49.8135 43.6909 48.4834C44.7566 47.1533 45.6901 46.8368 47.529 47.4377Z" fill="var(--primary-500)"/>
<path opacity="0.6" d="M47.529 47.4377C49.1315 47.9626 50.8141 53.2028 50.8141 53.2028L45.029 55.6947C45.029 55.6947 42.6253 49.8135 43.6909 48.4834C44.7566 47.1533 45.6901 46.8368 47.529 47.4377Z" fill="#FAFAFA"/>
<path d="M44.436 31.5648C43.4144 30.3028 35.522 29.4014 35.1014 32.8388C32.297 34.8019 34.9571 39.8738 35.3578 41.1639C33.4227 41.7007 27.1889 43.8321 31.7521 47.9746C36.3153 52.1171 43.158 51.412 44.4961 47.1252C45.4336 44.1285 42.4569 39.1126 42.521 37.3579C42.5851 35.6031 46.1868 33.7081 44.436 31.5648Z" fill="#263238"/>
<path d="M35.9103 41.7969C35.8956 41.7974 35.8811 41.7943 35.8679 41.7881C35.8546 41.7818 35.8431 41.7725 35.8342 41.7608C35.109 40.8794 32.5851 36.2482 33.4704 34.0447C33.6077 33.7028 33.8406 33.4077 34.1411 33.1946C34.4416 32.9815 34.7971 32.8593 35.1651 32.8428C35.1781 32.8411 35.1912 32.8421 35.2038 32.8457C35.2163 32.8493 35.228 32.8554 35.2381 32.8636C35.2483 32.8719 35.2566 32.8821 35.2626 32.8937C35.2687 32.9053 35.2723 32.9179 35.2733 32.931C35.2767 32.9569 35.2698 32.9832 35.2541 33.0042C35.2384 33.0252 35.2151 33.0392 35.1891 33.0431C34.8582 33.0554 34.5378 33.1623 34.2658 33.3512C33.9938 33.54 33.7817 33.803 33.6547 34.1088C32.8014 36.2402 35.2773 40.7633 35.9864 41.6286C35.9991 41.6427 36.0073 41.6603 36.01 41.679C36.0127 41.6978 36.0098 41.717 36.0017 41.7341C35.9935 41.7512 35.9805 41.7656 35.9643 41.7753C35.948 41.7851 35.9292 41.7898 35.9103 41.7889V41.7969Z" fill="#263238"/>
<path d="M41.8965 37.1696C41.9859 37.7547 42.2679 38.2932 42.6978 38.7C43.2667 39.2449 43.8035 38.8723 43.8556 38.1792C43.9037 37.5582 43.6633 36.5286 42.9902 36.2401C42.3172 35.9517 41.8124 36.4765 41.8965 37.1696Z" fill="#E4897B"/>
<path d="M55.7415 64.6528L58.017 63.8796L57.6605 66.6159C57.6605 66.6159 56.7631 67.0165 55.6012 66.0069L54.4915 65.2978L55.3649 64.8211C55.4846 64.7528 55.6108 64.6965 55.7415 64.6528Z" fill="#E4897B"/>
<path d="M59.6078 63.8715L58.9107 66.2633L57.6608 66.6118L58.0173 63.8796L59.6078 63.8715Z" fill="#E4897B"/>
</svg>
