<svg width="28" height="28" viewBox="0 0 28 28" fill="none" xmlns="http://www.w3.org/2000/svg">
<g id="vuesax/bulk/notification-bing">
<g id="notification-bing">
<path id="Vector" opacity="0.4" d="M23.7999 19.0516C23.4733 19.9266 22.785 20.5916 21.8866 20.8949C20.6266 21.3149 19.3316 21.6299 18.025 21.8516C17.8966 21.8749 17.7683 21.8983 17.64 21.9099C17.43 21.9449 17.22 21.9683 17.01 21.9916C16.7533 22.0266 16.485 22.0499 16.2166 22.0733C15.4816 22.1316 14.7583 22.1666 14.0233 22.1666C13.2766 22.1666 12.53 22.1316 11.795 22.0616C11.48 22.0383 11.1766 22.0033 10.8733 21.9566C10.6983 21.9333 10.5233 21.9099 10.36 21.8866C10.2316 21.8633 10.1033 21.8516 9.97495 21.8283C8.67995 21.6183 7.39662 21.3033 6.14828 20.8833C5.21495 20.5683 4.50329 19.9033 4.18829 19.0516C3.87329 18.2116 3.98995 17.2316 4.49162 16.3916L5.80995 14.1983C6.08995 13.7199 6.34662 12.7983 6.34662 12.2383V10.0683C6.34662 5.83327 9.78829 2.3916 14.0233 2.3916C18.2466 2.3916 21.6883 5.83327 21.6883 10.0683V12.2383C21.6883 12.7983 21.945 13.7199 22.2366 14.1983L23.555 16.3916C24.0333 17.2083 24.1266 18.1649 23.7999 19.0516Z" fill="#2D3748"/>
<path id="Vector_2" d="M13.9999 12.5533C13.5099 12.5533 13.1133 12.1567 13.1133 11.6667V8.05C13.1133 7.56 13.5099 7.16333 13.9999 7.16333C14.4899 7.16333 14.8866 7.56 14.8866 8.05V11.6667C14.8749 12.1567 14.4783 12.5533 13.9999 12.5533Z" fill="#2D3748"/>
<path id="Vector_3" d="M17.3016 23.3449C16.8116 24.6983 15.5166 25.6666 14 25.6666C13.0783 25.6666 12.1683 25.2933 11.5266 24.6283C11.1533 24.2783 10.8733 23.8116 10.71 23.3333C10.8616 23.3566 11.0133 23.3683 11.1766 23.3916C11.445 23.4266 11.725 23.4616 12.005 23.4849C12.67 23.5433 13.3466 23.5783 14.0233 23.5783C14.6883 23.5783 15.3533 23.5433 16.0066 23.4849C16.2516 23.4616 16.4966 23.4499 16.73 23.4149C16.9166 23.3916 17.1033 23.3683 17.3016 23.3449Z" fill="#2D3748"/>
</g>
</g>
</svg>
