<svg width="24" height="24" viewBox="0 0 24 24" fill="none" xmlns="http://www.w3.org/2000/svg">
<g id="vuesax/bulk/setting-3">
<g id="setting-3">
<path id="Vector" opacity="0.4" d="M16.19 2H7.81C4.17 2 2 4.17 2 7.81V16.18C2 19.83 4.17 22 7.81 22H16.18C19.82 22 21.99 19.83 21.99 16.19V7.81C22 4.17 19.83 2 16.19 2Z" fill="#38A169"/>
<path id="Vector_2" d="M15.58 19.2496C15.17 19.2496 14.83 18.9096 14.83 18.4996V14.5996C14.83 14.1896 15.17 13.8496 15.58 13.8496C15.99 13.8496 16.33 14.1896 16.33 14.5996V18.4996C16.33 18.9096 15.99 19.2496 15.58 19.2496Z" fill="#38A169"/>
<path id="Vector_3" d="M15.58 8.2C15.17 8.2 14.83 7.86 14.83 7.45V5.5C14.83 5.09 15.17 4.75 15.58 4.75C15.99 4.75 16.33 5.09 16.33 5.5V7.45C16.33 7.86 15.99 8.2 15.58 8.2Z" fill="#38A169"/>
<path id="Vector_4" d="M8.42004 19.2508C8.01004 19.2508 7.67004 18.9108 7.67004 18.5008V16.5508C7.67004 16.1408 8.01004 15.8008 8.42004 15.8008C8.83004 15.8008 9.17004 16.1408 9.17004 16.5508V18.5008C9.17004 18.9108 8.84004 19.2508 8.42004 19.2508Z" fill="#38A169"/>
<path id="Vector_5" d="M8.42004 10.15C8.01004 10.15 7.67004 9.81 7.67004 9.4V5.5C7.67004 5.09 8.01004 4.75 8.42004 4.75C8.83004 4.75 9.17004 5.09 9.17004 5.5V9.4C9.17004 9.81 8.84004 10.15 8.42004 10.15Z" fill="#38A169"/>
<path id="Vector_6" d="M15.58 7.33008C14.08 7.33008 12.85 8.55008 12.85 10.0501C12.85 11.5501 14.07 12.7801 15.58 12.7801C17.08 12.7801 18.3 11.5601 18.3 10.0501C18.3 8.54008 17.08 7.33008 15.58 7.33008Z" fill="#38A169"/>
<path id="Vector_7" d="M8.41995 11.2305C6.91995 11.2305 5.69995 12.4505 5.69995 13.9605C5.69995 15.4705 6.91995 16.6805 8.41995 16.6805C9.91995 16.6805 11.15 15.4605 11.15 13.9605C11.15 12.4605 9.92995 11.2305 8.41995 11.2305Z" fill="#38A169"/>
</g>
</g>
</svg>
