<svg width="25" height="24" viewBox="0 0 25 24" fill="none" xmlns="http://www.w3.org/2000/svg">
<g id="vuesax/bulk/trash">
<g id="trash">
<path id="Vector" d="M21.5702 5.23C19.9602 5.07 18.3502 4.95 16.7302 4.86V4.85L16.5102 3.55C16.3602 2.63 16.1402 1.25 13.8002 1.25H11.1802C8.85016 1.25 8.63016 2.57 8.47016 3.54L8.26016 4.82C7.33016 4.88 6.40016 4.94 5.47016 5.03L3.43016 5.23C3.01016 5.27 2.71016 5.64 2.75016 6.05C2.79016 6.46 3.15016 6.76 3.57016 6.72L5.61016 6.52C10.8502 6 16.1302 6.2 21.4302 6.73C21.4602 6.73 21.4802 6.73 21.5102 6.73C21.8902 6.73 22.2202 6.44 22.2602 6.05C22.2902 5.64 21.9902 5.27 21.5702 5.23Z" fill="#E53E3E"/>
<path id="Vector_2" opacity="0.3991" d="M19.7302 8.14C19.4902 7.89 19.1602 7.75 18.8202 7.75H6.18024C5.84024 7.75 5.50024 7.89 5.27024 8.14C5.04024 8.39 4.91024 8.73 4.93024 9.08L5.55024 19.34C5.66024 20.86 5.80024 22.76 9.29024 22.76H15.7102C19.2002 22.76 19.3402 20.87 19.4502 19.34L20.0702 9.09C20.0902 8.73 19.9602 8.39 19.7302 8.14Z" fill="#E53E3E"/>
<path id="Vector (Stroke)" fill-rule="evenodd" clip-rule="evenodd" d="M10.0801 17C10.0801 16.5858 10.4159 16.25 10.8301 16.25H14.1601C14.5743 16.25 14.9101 16.5858 14.9101 17C14.9101 17.4142 14.5743 17.75 14.1601 17.75H10.8301C10.4159 17.75 10.0801 17.4142 10.0801 17Z" fill="#E53E3E"/>
<path id="Vector (Stroke)_2" fill-rule="evenodd" clip-rule="evenodd" d="M9.25 13C9.25 12.5858 9.58579 12.25 10 12.25H15C15.4142 12.25 15.75 12.5858 15.75 13C15.75 13.4142 15.4142 13.75 15 13.75H10C9.58579 13.75 9.25 13.4142 9.25 13Z" fill="#E53E3E"/>
</g>
</g>
</svg>
