<svg width="20" height="20" viewBox="0 0 20 20" fill="none" xmlns="http://www.w3.org/2000/svg">
<g id="vuesax/bulk/wallet-2">
<g id="wallet-2">
<path id="Vector" d="M18.3333 9.14147V10.8582C18.3333 11.3165 17.9667 11.6915 17.5 11.7082H15.8667C14.9667 11.7082 14.1417 11.0498 14.0667 10.1498C14.0167 9.62482 14.2167 9.13315 14.5667 8.79148C14.875 8.47482 15.3 8.2915 15.7667 8.2915H17.5C17.9667 8.30817 18.3333 8.68314 18.3333 9.14147Z" fill="#5A2F8D"/>
<path id="Vector_2" opacity="0.4" d="M14.5665 8.79149C14.2165 9.13316 14.0165 9.62483 14.0665 10.1498C14.1415 11.0498 14.9665 11.7082 15.8665 11.7082H17.4998V12.9165C17.4998 15.4165 15.8332 17.0832 13.3332 17.0832H5.83317C3.33317 17.0832 1.6665 15.4165 1.6665 12.9165V7.08317C1.6665 4.8165 3.03317 3.23317 5.15817 2.9665C5.37484 2.93317 5.59984 2.9165 5.83317 2.9165H13.3332C13.5498 2.9165 13.7582 2.92483 13.9582 2.95816C16.1082 3.20816 17.4998 4.79984 17.4998 7.08317V8.29151H15.7665C15.2998 8.29151 14.8748 8.47483 14.5665 8.79149Z" fill="#5A2F8D"/>
<g id="Group">
<path id="Vector_3" d="M10.8335 8.125H5.8335C5.49183 8.125 5.2085 7.84167 5.2085 7.5C5.2085 7.15833 5.49183 6.875 5.8335 6.875H10.8335C11.1752 6.875 11.4585 7.15833 11.4585 7.5C11.4585 7.84167 11.1752 8.125 10.8335 8.125Z" fill="#5A2F8D"/>
</g>
</g>
</g>
</svg>
